<svg fill="none" height="20" viewBox="0 0 20 20" width="20" xmlns="http://www.w3.org/2000/svg"><path d="m2.92984 17.07c-.95511-.9225-1.71693-2.0259-2.241019-3.246-.52409-1.22-.799952-2.5322-.81149-3.86-.011538-1.32779.241479-2.64459.744287-3.87355.502812-1.22897 1.245342-2.34549 2.184272-3.28441.93892-.93893 2.05544-1.68146 3.2844-2.184269 1.22897-.502809 2.54576-.755826 3.87356-.744288 1.32775.011538 2.63995.287401 3.86005.811491 1.22.524086 2.3235 1.285916 3.2459 2.241016 1.8216 1.88602 2.8296 4.41204 2.8068 7.03401-.0228 2.622-1.0745 5.1301-2.9286 6.9842s-4.3622 2.9057-6.98415 2.9285c-2.62197.0228-5.14799-.9851-7.03401-2.8067zm12.72996-1.41c1.5012-1.5011 2.3445-3.5371 2.3445-5.66001s-.8433-4.15888-2.3445-5.66c-1.5011-1.50113-3.5371-2.34445-5.65996-2.34445-2.12292 0-4.15888.84332-5.66 2.34445-1.50113 1.50112-2.34445 3.53709-2.34445 5.66s.84332 4.15891 2.34445 5.66001c1.50112 1.5011 3.53708 2.3444 5.66 2.3444 2.12286 0 4.15886-.8433 5.65996-2.3444zm-8.95997-6.37001 2.30001 2.31001 4.29996-4.30001 1.4 1.42-5.69996 5.68001-3.7-3.7 1.39999-1.42001z" fill="#5b7083"/></svg>