<svg fill="none" height="25" viewBox="0 0 25 25" width="25" xmlns="http://www.w3.org/2000/svg"><rect fill="#fada9b" height="25" rx="4" width="25"/><g fill="#080808"><path d="m20.4515 19.4536-4.5413-4.7613c-.075-.0787-.1997-.0818-.2785-.0065l-.2166.2065-.914-.9775c1.5905-2.1063 1.4701-5.12224-.4096-7.09326-2.0892-2.19009-5.57059-2.27254-7.76073-.18358-1.06087 1.01185-1.66449 2.37633-1.69914 3.84204-.03464 1.4658.50358 2.8574 1.5155 3.9185 1.01185 1.0609 2.37633 1.6645 3.84207 1.6991.5336.0128 1.057-.0505 1.5587-.185.5921-.1586 1.152-.4187 1.662-.7678l.9149.9782-.1955.1864c-.0376.036-.0598.0857-.061.1379-.0012.0523.0184.1029.0544.1408l4.5411 4.7614c.0515.054.1265.0722.1938.0542.0309-.0083.0601-.024.0848-.0477l1.7025-1.6237c.0377-.036.0596-.0856.061-.1379.0012-.0522-.0184-.1029-.0544-.1408zm-10.45301-3.75c-1.36043-.0322-2.6271-.5922-3.56652-1.5772-.93916-.9849-1.43892-2.2765-1.40651-3.637.03241-1.36051.5922-2.62713 1.5772-3.56654.63765-.60805 1.39303-1.01789 2.18958-1.23132 1.74306-.46706 3.68296.00677 5.01396 1.402.9392.98486 1.4387 2.27641 1.4065 3.63706-.0321 1.3606-.5922 2.6271-1.5772 3.5665-.9848.9392-2.2766 1.4387-3.63701 1.4065zm3.90901-1.1214c.1208-.1154.2341-.2356.3423-.3588l.8801.9411-.72.6866-.881-.9421c.1298-.1036.257-.2109.3786-.3268zm4.7056 6.3527-4.2694-4.4763 1.4174-1.3518 4.2694 4.4763z"/><path d="m11.3169 6.52739c-2.251-.66071-4.61947.63324-5.28033 2.88409-.31996 1.09032-.19636 2.24002.34844 3.23732.54481.9974 1.44518 1.7229 2.53565 2.043 1.54504.4534 3.14534-.0138 4.21094-1.0794.4868-.4868.862-1.0987 1.0692-1.8045.6606-2.25118-.6331-4.61993-2.8839-5.28051zm2.5059 5.16921c-.5992 2.0423-2.7485 3.2162-4.79122 2.6169-.98922-.2904-1.80643-.9487-2.30069-1.8536-.49425-.9049-.6066-1.9483-.31612-2.93764.18797-.64049.52829-1.19555.97015-1.63741.96686-.96686 2.41916-1.39078 3.82108-.9794 2.0422.59949 3.2161 2.74881 2.6168 4.79115z"/></g></svg>