<svg fill="none" height="25" viewBox="0 0 25 25" width="25" xmlns="http://www.w3.org/2000/svg"><rect fill="#a8c6da" height="25" rx="4" width="25"/><g fill="#fff"><path d="m20.9374 14.4682c-.3249-.2822-.7091-.4997-1.1336-.6306.5391.0592 1.0118.15 1.0118.15-1.0758-.578-1.0478-2.6535-1.0478-2.6535.1702-3.63863-2.0373-3.81115-2.4569-3.81115-.0442 0-.0686.00195-.0686.00195l-.0016.00631-.0022-.00587s-.0245-.00217-.0685-.00217c-.4195 0-2.6266.17209-2.4564 3.81093 0 0 .0278 2.0759-1.048 2.6537 0 0 .2896-.0189.6769-.0261-.2527.1104-.4851.2542-.6964.4226.9713.9146 1.5255 2.1783 1.5255 3.5005 0 .0982-.0042.1925-.0102.2851.1509-.0035.3038-.0059.4609-.0059h3.2357c.4529 0 .8843.0204 1.2729.0204.7874 0 1.4025-.0863 1.6907-.5927.1142-.2017.1784-.4681.1784-.8248 0-.9157-.4115-1.7364-1.0626-2.2987zm-2.9698.1749-.7267 1.1547-.7268-1.1547c-.528-.1171-.936-.3578-1.1007-.6555.4264.036.7869.113.8809.2625l-.4007-.8733c.384.375.8473.594 1.3473.594.4883 0 .9418-.2094 1.3203-.5682l-.2796.5682c.0851-.1366.3818-.1823.7442-.1823.0371 0 .0754.0003.114.0013-.0655.387-.5311.7112-1.1722.8533zm1.3591-3.6995c-.0411.5322-.1791 1.0221-.3891 1.4335-.3811.7481-.9989 1.2344-1.6967 1.2344-1.0635 0-1.9424-1.1301-2.0802-2.5953 0 .0007.8394-.1356 1.3411-.3289 0 0 .9085-.2966 2.0178-1.07821.0053-.00391.0113-.00739.0164-.01173 0 0 .0198.02824.0485.07583.0962.16122.302.64231-.0878.86241l.71.0882h.0136l.1302.0233c-.002.1008-.0091.1996-.0238.2965z"/><path d="m12.2638 14.4947c.0789.0462.1563.095.2314.1463-.0753-.0515-.1525-.1001-.2314-.1463z"/><path d="m12.5656 14.6892c.0454.0324.0902.0656.1344.0998-.0442-.0342-.089-.0671-.1344-.0998z"/><path d="m12.0462 14.3754c.0439.0225.0881.0449.1311.0687-.0435-.0238-.0872-.0464-.1311-.0687z"/><path d="m11.8451 14.2783h-.0046c.0312.0137.0619.0283.0927.0425-.0297-.0137-.058-.0296-.0881-.0425z"/><path d="m11.8353 19.7071h.0002c1.0122 0 1.8033-.111 2.1729-.762-.3705.651-1.1611.762-2.1731.762z"/><path d="m14.2375 17.8848c0-1.1773-.5275-2.2324-1.3635-2.9557-.0414-.0357-.0847-.0681-.1269-.1022.0417.0333.0835.0674.1242.1024.8371.7231 1.3662 1.7782 1.3662 2.9555z"/><path d="m14.0084 18.9451c.1467-.259.2291-.6016.2291-1.0603 0 .4589-.0829.8013-.2291 1.0603z"/><path d="m3.52244 14.3118s.37222-.0244.87-.0335c-.37778.1651-.72333.3859-1.02889.651-.836.7231-1.36355 1.7782-1.36355 2.9555 0 .4586.08244.8013.22911 1.0603.36956.651 1.16067.762 2.17266.762.50023 0 1.05423-.0261 1.63645-.0261h2.08044 2.07954c.5827 0 1.1367.0261 1.6369.0261h.0002c1.012 0 1.8027-.111 2.1731-.762.1462-.259.2291-.6017.2291-1.0603 0-1.1773-.5291-2.2324-1.3662-2.9555-.0406-.035-.0824-.0689-.1242-.1024-.016-.013-.0318-.0258-.0478-.0384-.0438-.0341-.0884-.0672-.134-.0995-.0233-.0166-.0475-.0324-.0711-.0489-.0749-.0511-.1522-.0998-.2307-.1458-.0288-.017-.0577-.0344-.0868-.0507-.0429-.0236-.0869-.0462-.1307-.0684-.0373-.0189-.0751-.0369-.1131-.0548-.0307-.0141-.0614-.0289-.0925-.0423-.1384-.0607-.2806-.1143-.4269-.1595.6932.0763 1.3009.1929 1.3009.1929-.3777-.2031-.6493-.5503-.8453-.9471-.5204-1.0554-.502-2.4642-.502-2.4642.2187-4.67835-2.61933-4.9002-3.15866-4.9002-.05667 0-.08823.00282-.08823.00282l-.00177.00804-.00267-.00782s-.03178-.00261-.088-.00261c-.53933 0-3.37711.22142-3.15822 4.89997 0 0 .01845 1.4086-.50222 2.4642-.19556.3968-.46711.744-.84489.9472zm5.52999.8426-.93399 1.4847-.93489-1.4847c-.67867-.1504-1.20333-.46-1.41511-.8426.54822.0464 1.012.1449 1.13266.3374l-.17044-.3709-.34467-.7516c.43511.425.95.6938 1.50622.7516.07445.0076.14956.0124.22578.0124.07756 0 .15445-.0046.23089-.0124.53955-.0576 1.04067-.3142 1.46689-.7184l-.35356.7184-.006.0124c.00267-.0046.00778-.0081.01089-.0124.12022-.1656.492-.2219.9458-.2219.0478 0 .0971.0003.1466.0016-.0128.0756-.0386.149-.0742.2205-.1982.3974-.73353.7207-1.43287.8759zm-1.88422-5.0862s1.16778-.38111 2.59445-1.38627c.00711-.00478.01422-.00956.02111-.01521 0 0 .02555.03629.06244.09756.12356.20729.38819.82568-.11289 1.10858l.91338.11343h.0171l.1673.03021c-.0024.1293-.0116.2566-.0304.3813-.0529.684-.2305 1.3139-.5005 1.8428-.2364.4643-.54421.8487-.89954 1.1236-.38134.2946-.81756.4632-1.28178.4632-.46311 0-.89778-.1695-1.27844-.4632-.74378-.5732-1.27889-1.6275-1.396-2.8732-.00067.0009 1.07866-.174 1.72377-.4228z"/></g></svg>