<svg fill="none" height="71" viewBox="0 0 49 71" width="49" xmlns="http://www.w3.org/2000/svg" xmlns:xlink="http://www.w3.org/1999/xlink"><filter id="a" color-interpolation-filters="sRGB" filterUnits="userSpaceOnUse" height="49" width="49" x="0" y="22"><feFlood flood-opacity="0" result="BackgroundImageFix"/><feColorMatrix in="SourceAlpha" type="matrix" values="0 0 0 0 0 0 0 0 0 0 0 0 0 0 0 0 0 0 127 0"/><feOffset dx="1"/><feGaussianBlur stdDeviation=".5"/><feColorMatrix type="matrix" values="0 0 0 0 0.168627 0 0 0 0 0.176471 0 0 0 0 0.313726 0 0 0 0.16 0"/><feBlend in2="BackgroundImageFix" mode="normal" result="effect1_dropShadow"/><feColorMatrix in="SourceAlpha" type="matrix" values="0 0 0 0 0 0 0 0 0 0 0 0 0 0 0 0 0 0 127 0"/><feOffset dx="-1" dy="1"/><feGaussianBlur stdDeviation=".5"/><feColorMatrix type="matrix" values="0 0 0 0 0.168627 0 0 0 0 0.176471 0 0 0 0 0.313726 0 0 0 0.16 0"/><feBlend in2="effect1_dropShadow" mode="normal" result="effect2_dropShadow"/><feColorMatrix in="SourceAlpha" type="matrix" values="0 0 0 0 0 0 0 0 0 0 0 0 0 0 0 0 0 0 127 0"/><feOffset dy="1"/><feGaussianBlur stdDeviation="2"/><feColorMatrix type="matrix" values="0 0 0 0 0.168627 0 0 0 0 0.176471 0 0 0 0 0.313726 0 0 0 0.18 0"/><feBlend in2="effect2_dropShadow" mode="normal" result="effect3_dropShadow"/><feBlend in="SourceGraphic" in2="effect3_dropShadow" mode="normal" result="shape"/></filter><path d="m24.5 25v-25" stroke="#cbc9c9"/><g filter="url(#a)"><rect fill="#fff" height="41" rx="20.5" width="41" x="4" y="25"/></g><path clip-rule="evenodd" d="m24.5159 35c1.1437 0 2.0968.9531 2.0968 2.0968v6.3223h6.2905c1.1755 0 2.0968.9213 2.0968 2.0968 0 1.1437-.9213 2.0968-2.0968 2.0968h-6.2905v6.2905c0 1.1755-.9531 2.0968-2.0968 2.0968-1.1755 0-2.0968-.9213-2.0968-2.0968v-6.2905h-6.3223c-1.1437 0-2.0968-.9531-2.0968-2.0968 0-1.1755.9531-2.0968 2.0968-2.0968h6.3223v-6.3223c0-1.1437.9213-2.0968 2.0968-2.0968z" fill="#63c467" fill-rule="evenodd"/></svg>