<svg fill="none" height="25" viewBox="0 0 25 25" width="25" xmlns="http://www.w3.org/2000/svg"><rect fill="#a8c6da" height="25" rx="4" width="25"/><path d="m20.1282 16.8789v-1.9573c-.0005-.5897-.2351-1.1551-.6523-1.5721s-.9829-.6515-1.5729-.652h-4.1658v-3.57606c.6088-.17732 1.1323-.56979 1.4731-1.10431s.4756-1.17464.3793-1.80113c-.0963-.62648-.4172-1.1966-.9028-1.60418-.4857-.40757-1.103-.6248-1.737-.61122-.6339.01358-1.2414.25704-1.7091.68503-.4677.428-.7639 1.01134-.8332 1.64137-.0694.63003.0927 1.26379.4561 1.78323.3634.51943.9033.88913 1.5191 1.04022v3.54705h-4.28197c-.58999.0005-1.15568.235-1.57286.652-.41719.417-.65179.9824-.6523 1.5721v1.9573c-.60829.179-1.13072.573-1.46998 1.1085s-.47222 1.176-.3741 1.8022c.09811.6262.4206 1.1954.90741 1.6016.4868.4062 1.10472.6216 1.73865.6062.63394-.0154 1.24066-.2605 1.70717-.6899.4665-.4293.76097-1.0135.82856-1.6437.06758-.6302-.09632-1.2635-.46119-1.7819-.36486-.5184-.90581-.8866-1.52208-1.0359v-1.934c0-.2309.09174-.4522.25503-.6155.16329-.1632.38476-.2549.61569-.2549h4.28197v2.8063c-.6148.1511-1.1537.5204-1.5163 1.0391-.3627.5187-.5243 1.1515-.455 1.7805.0694.629.3652 1.2113.8322 1.6386.467.4272 1.0735.6702 1.7064.6838.633.0136 1.2493-.2033 1.7342-.6101.4849-.4069.8053-.9761.9016-1.6015.0963-.6255-.0382-1.2646-.3782-1.7983-.3401-.5338-.8627-.9258-1.4704-1.1031v-2.8256h4.1658c.231 0 .4524.0917.6157.2549s.2551.3846.2551.6154v1.9341c-.6152.1493-1.1552.5171-1.5193 1.0347-.3641.5177-.5276 1.15-.46 1.7792s.3617 1.2123.8275 1.6409 1.0715.6734 1.7044.6887c.6329.0154 1.2498-.1997 1.7359-.6052.486-.4054.8081-.9737.9062-1.5988.0981-.6252-.0345-1.2647-.3731-1.7994-.3385-.5347-.86-.9282-1.4672-1.1073z" fill="#fff"/></svg>