<svg fill="none" height="25" viewBox="0 0 25 25" width="25" xmlns="http://www.w3.org/2000/svg"><rect fill="#a8c6da" height="25" rx="4" width="25"/><path d="m21.9904 7.69022c0-.53798-.4252-.97559-.9477-.97559h-5.0599v-1.35968c0-.74713-.5905-1.35495-1.3162-1.35495h-3.3332c-.7257 0-1.3162.60782-1.3162 1.35495v1.35968h-5.05986c-.52255 0-.9477.43761-.9477.97475l-.00964 4.73732c-.00027.1459.08054.279.20803.3426.20879.1043.42378.2009.63984.2962v6.4591c0 .5379.42506.9754.94761.9754h14.40892c.5226 0 .9477-.4375.9477-.9754v-6.5557c.2211-.1049.4388-.2137.651-.3289.1213-.0658.1972-.1956.1969-.3369zm-11.2352-2.33527c0-.32816.2594-.59511.5782-.59511h3.3332c.3134 0 .5782.27251.5782.59511v1.35968h-4.4896zm9.6589 14.16965c0 .1148-.098.2156-.2097.2156h-14.40892c-.11361 0-.20956-.0987-.20956-.2156v-6.1579c1.70246.6472 3.60644 1.0351 5.68488 1.1521v.5742c0 .3916.3094.7101.6898.7101h2.0788c.3804 0 .6898-.3185.6898-.7101v-.5806c2.1055-.13 4.0101-.5389 5.6849-1.2193zm-8.4052-4.4813v-1.3688h1.9822v1.3688zm2.7203-1.2948v-.1236c0-.3916-.3094-.7102-.6898-.7102h-2.0788c-.3804 0-.6898.3186-.6898.7102v.1325c-2.45153-.1424-4.64834-.6684-6.5323-1.5698l.00919-4.49738c0-.11697.09604-.21575.20965-.21575h16.08536c.1136 0 .2096.09878.2096.21658l.0092 4.38165c-1.8387.9559-4.0358 1.5165-6.5323 1.6758z" fill="#fff"/></svg>