<svg fill="none" height="25" viewBox="0 0 25 25" width="25" xmlns="http://www.w3.org/2000/svg"><rect fill="#a8c6da" height="25" rx="4" width="25"/><path d="m4.23611 7.9021h16.76389m-7.0833 4.042c0 .2821-.0831.5579-.2388.7925s-.3769.4175-.6358.5254c-.2588.108-.5437.1363-.8185.0812-.2748-.055-.5272-.1909-.7253-.3904-.1982-.1995-.3331-.4537-.3877-.7304-.0547-.2768-.0267-.5636.0806-.8243.1072-.2606.2888-.4834.5217-.6402.233-.1568.5069-.2404.7871-.2404.3757 0 .7361.1503 1.0017.4178.2657.2675.415.6304.415 1.0088zm.9444 3.8042c0-.6199-.2445-1.2144-.6798-1.6527s-1.0256-.6846-1.6412-.6846c-.6155 0-1.2059.2463-1.6411.6846-.4353.4383-.6798 1.0328-.6798 1.6527zm.7083-4.2798c-.2334 0-.4617.0698-.6558.2004-.1942.1306-.3455.3163-.4348.5335-.0894.2172-.1128.4563-.0672.6869.0455.2306.158.4424.3231.6087.1651.1662.3754.2794.6044.3253s.4664.0223.6821-.0676c.2157-.09.4001-.2424.5298-.4379.1298-.1955.199-.4253.199-.6605 0-.3153-.1244-.6176-.3458-.8406-.2214-.2229-.5217-.3482-.8348-.3482zm-.7083 4.2798h2.5972c-.0015-.3399-.0947-.673-.2696-.9637s-.4249-.5281-.7234-.6868-.6342-.2327-.9712-.2142c-.337.0184-.6627.1288-.9423.3192zm-5.43054-4.2798c-.2335 0-.46174.0698-.65589.2004-.19414.1306-.34545.3163-.43481.5335-.08935.2172-.11273.4563-.06718.6869.04556.2306.15799.4424.3231.6087.1651.1662.37545.2794.60446.3253s.46638.0223.68209-.0676c.21577-.09.40007-.2424.52987-.4379.1297-.1955.1989-.4253.1989-.6605 0-.3153-.1244-.6176-.3458-.8406-.2214-.2229-.52164-.3482-.83474-.3482zm1.10504 2.7866c-.2762-.2125-.60597-.3429-.95194-.3766-.34598-.0336-.6944.0309-1.00587.1862-.31148.1554-.57359.3954-.75669.6929s-.27989.6406-.27943.9907h2.59723zm10.4644-8.2551h-17v12.3636h17z" stroke="#fff" stroke-linecap="round" stroke-linejoin="round"/></svg>