<svg width="120" height="28" viewBox="0 0 120 28" fill="none" xmlns="http://www.w3.org/2000/svg">
<path d="M23.2441 27.8532C22.6479 27.8131 21.6434 27.754 21.0119 27.7217C18.7637 27.607 17.3736 27.5234 17.1855 27.4917C17.0806 27.474 16.6648 27.4373 16.2615 27.4101C15.8582 27.383 15.4282 27.34 15.3059 27.3146C15.1836 27.2891 14.897 27.2551 14.6691 27.2388C13.9173 27.1854 13.2266 27.0823 12.6795 26.9419C12.4674 26.8875 12.2653 26.8594 12.2303 26.8795C12.1953 26.8996 12.1862 26.8866 12.2101 26.8506C12.2395 26.8063 12.0272 26.777 11.553 26.76C11.1678 26.7462 10.8101 26.7175 10.7581 26.6963C10.7062 26.6752 10.6474 26.5588 10.6276 26.4377C10.5866 26.1873 10.5195 26.1488 9.91004 26.0257C9.68288 25.9798 9.3261 25.883 9.11719 25.8107C8.90828 25.7383 8.6619 25.6629 8.56968 25.643C8.30638 25.5864 8.31105 25.4473 8.58512 25.1827C8.87332 24.9045 9.10054 24.7887 9.56296 24.6841C9.86279 24.6164 10.2731 24.3354 10.2767 24.1953C10.2779 24.1483 10.0031 24.0568 9.61176 23.9741C9.50694 23.9519 9.16329 23.9116 8.8481 23.8846C8.53291 23.8575 8.11374 23.7898 7.91662 23.7341C7.69754 23.6722 7.25704 23.6253 6.78345 23.6134C5.9424 23.5923 5.58275 23.4941 5.52966 23.2709C5.51168 23.1953 5.35471 23.0757 5.13057 22.9668C4.92737 22.868 4.77647 22.7641 4.79524 22.7358C4.814 22.7075 4.79163 22.6963 4.74552 22.7109C4.53841 22.7763 4.23004 22.632 4.12086 22.4184C4.00186 22.1856 4.0579 21.971 4.2365 21.9755C4.28793 21.9768 4.33078 21.9566 4.33173 21.9306C4.33269 21.9047 4.52732 21.8802 4.76428 21.8761C5.00123 21.8721 5.20538 21.8418 5.21794 21.8088C5.2305 21.7758 5.29414 21.7502 5.35936 21.7518C5.42457 21.7535 5.49642 21.7269 5.51901 21.6929C5.5416 21.6588 5.58881 21.6317 5.62391 21.6325C5.65902 21.6334 5.67312 21.6562 5.65525 21.6831C5.63738 21.7101 5.70694 21.7331 5.80983 21.7344C5.92032 21.7357 5.99779 21.7028 5.99905 21.6541C6.00025 21.6087 6.02945 21.5898 6.06401 21.6121C6.09856 21.6344 6.12753 21.6256 6.12838 21.5927C6.13089 21.4956 5.96474 21.456 5.6709 21.4836C5.51971 21.4978 5.26758 21.474 5.11061 21.4306C4.95365 21.3873 4.78235 21.3425 4.72995 21.3311C4.67755 21.3197 4.58453 21.2878 4.52324 21.2603C4.46195 21.2327 4.35444 21.2234 4.28432 21.2396C4.12126 21.2773 4.06783 21.1903 4.19391 21.0924C4.24729 21.0509 4.29076 21.0417 4.29052 21.0719C4.29028 21.1021 4.31191 21.0991 4.3386 21.0651C4.42068 20.9607 4.6786 20.8467 4.67682 20.9157C4.67586 20.9506 4.70559 20.9799 4.74277 20.9808C4.77995 20.9818 4.79692 20.9598 4.78048 20.932C4.73807 20.8603 5.25058 20.8619 5.37895 20.9338C5.44751 20.9722 5.51215 20.9687 5.56003 20.9238C5.64602 20.8433 5.90331 20.8166 5.85229 20.8935C5.79284 20.9831 5.99815 20.9534 6.08056 20.8604C6.13924 20.7942 6.19987 20.7877 6.31675 20.8349C6.51879 20.9164 6.58745 20.9163 6.46734 20.8346C6.39678 20.7866 6.42914 20.7732 6.59646 20.7812C6.71926 20.787 7.036 20.7652 7.30031 20.7326C7.56463 20.7001 7.8578 20.6716 7.9518 20.6693C8.23129 20.6625 8.15638 20.4503 7.78342 20.1925C7.57034 20.0452 7.46957 19.9356 7.49391 19.8775C7.51769 19.8208 7.55698 19.8097 7.60211 19.847C7.64109 19.8793 7.73102 19.8842 7.80195 19.8581C7.87289 19.832 8.03803 19.8113 8.16894 19.8121C8.35316 19.8133 8.43296 19.7766 8.52209 19.6497C8.66687 19.4436 8.68774 19.3268 8.60781 19.1701C8.57311 19.1021 8.57067 19.0631 8.6024 19.0836C8.63413 19.104 8.70078 19.017 8.75051 18.8903C8.80025 18.7635 8.87334 18.6398 8.91293 18.6154C8.95253 18.5909 8.87005 18.5672 8.72965 18.5626C8.5411 18.5564 8.49981 18.5389 8.5717 18.4956C8.6455 18.4512 8.61869 18.4356 8.46073 18.4309C8.34617 18.4275 8.20322 18.3978 8.14307 18.3649C8.08292 18.3321 7.76983 18.1939 7.44733 18.0578C6.80055 17.7849 6.42436 17.717 5.04929 17.6247C3.99552 17.554 3.87714 17.5382 3.71199 17.446C3.54387 17.3522 2.67488 17.2004 2.12296 17.1684C1.83366 17.1517 1.57646 17.0942 1.39227 17.0052C1.23593 16.9297 0.965056 16.8452 0.79033 16.8175C0.442859 16.7623 -0.00193765 16.5945 6.35013e-06 16.5193C0.00072635 16.4932 0.167777 16.4225 0.37133 16.3623C0.684128 16.2698 0.948971 16.2573 2.08199 16.2819C2.98706 16.3016 3.50223 16.2869 3.66779 16.2369C3.90688 16.1647 4.1359 16.1813 4.71962 16.3135C4.87008 16.3476 5.29802 16.3883 5.67059 16.404C6.04317 16.4196 6.40268 16.4631 6.46952 16.5005C6.54098 16.5406 6.68737 16.5513 6.82491 16.5266C6.95355 16.5036 7.08401 16.4913 7.11483 16.4995C7.22869 16.5296 9.17231 16.5587 9.38887 16.5336C9.756 16.491 10.2167 16.465 10.8516 16.4509C11.1809 16.4436 11.4821 16.4078 11.5211 16.3713C11.5904 16.3064 11.4735 16.2704 11.2634 16.2919C11.2193 16.2965 11.1842 16.2676 11.1852 16.2277C11.1863 16.1879 11.1457 16.1698 11.0951 16.1875C11.0445 16.2052 10.9687 16.1766 10.9267 16.1241C10.8654 16.0473 10.8396 16.0443 10.7957 16.1088C10.7512 16.1742 10.7413 16.1738 10.7422 16.1062C10.7429 16.0538 10.6988 16.036 10.6223 16.0578C10.5417 16.0808 10.4878 16.055 10.461 15.9805C10.4388 15.919 10.4518 15.8593 10.4899 15.8478C10.5883 15.8182 10.7529 15.656 10.7547 15.5868C10.7571 15.4903 10.5075 15.2629 10.4411 15.3011C10.4071 15.3206 10.3967 15.2951 10.418 15.2444C10.4473 15.1744 10.422 15.1603 10.3122 15.1857C10.1975 15.2122 10.1765 15.1982 10.2103 15.1176C10.2732 14.9674 10.1392 14.9153 10.0297 15.0474C9.96962 15.1197 9.94763 15.1273 9.96953 15.0679C10.0081 14.9633 9.71395 14.7873 9.60515 14.8499C9.56767 14.8714 9.55979 14.8569 9.58683 14.8162C9.61291 14.7769 9.60383 14.7439 9.56666 14.743C9.52948 14.742 9.49796 14.7838 9.49662 14.8357C9.49317 14.9689 9.36687 14.9506 9.36488 14.8166C9.36348 14.723 9.355 14.7252 9.30863 14.831C9.27859 14.8995 9.2624 14.9711 9.27264 14.9901C9.28289 15.0092 9.2357 15.0275 9.16779 15.0308C9.01846 15.0381 9.01102 14.9882 9.14755 14.8949C9.22688 14.8408 9.1706 14.828 8.8886 14.8362C8.67576 14.8424 8.54406 14.8229 8.5668 14.7886C8.58817 14.7564 8.54807 14.7438 8.4767 14.7603C8.40192 14.7776 8.3489 14.7591 8.35001 14.7161C8.35109 14.6754 8.31778 14.6617 8.27606 14.6857C8.22277 14.7164 8.21569 14.6939 8.25225 14.6101C8.28088 14.5446 8.31186 14.4525 8.3211 14.4056C8.34985 14.2595 8.51344 14.2208 8.71172 14.3131C8.81585 14.3616 8.86509 14.4026 8.82114 14.4044C8.66428 14.4105 8.74114 14.5334 8.90437 14.5375C9.02445 14.5405 9.06143 14.5157 9.03721 14.4484C9.01874 14.3971 9.03296 14.3383 9.06879 14.3177C9.11042 14.2937 9.10495 14.2431 9.05365 14.1776C8.98578 14.0908 8.98892 14.0811 9.07393 14.1149C9.12924 14.1369 9.21571 14.1275 9.26608 14.0941C9.33842 14.0461 9.33383 14.0402 9.24426 14.0662C9.14864 14.0939 9.13821 14.0724 9.1778 13.9288C9.20363 13.8351 9.24837 13.7439 9.27723 13.7261C9.37117 13.6681 9.2726 13.4193 9.16991 13.4552C9.1033 13.4785 9.08189 13.4531 9.09855 13.3704C9.11597 13.284 9.08799 13.2551 8.99435 13.263C8.92393 13.2688 8.90281 13.2588 8.94742 13.2407C8.99202 13.2225 9.0141 13.1833 8.9965 13.1536C8.9789 13.1238 9.02327 13.0611 9.09511 13.0141C9.16695 12.9672 9.20724 12.9096 9.18465 12.8862C9.16206 12.8627 9.19864 12.8445 9.26594 12.8457C9.36639 12.8474 9.37173 12.8368 9.29576 12.7868C9.23503 12.7467 9.18672 12.7506 9.15523 12.7981C9.12884 12.8379 9.08946 12.852 9.06772 12.8295C9.02786 12.7881 9.15318 12.5244 9.23939 12.4682C9.30986 12.4222 9.39795 12.1358 9.32951 12.1752C9.29717 12.1938 9.23854 12.1552 9.19924 12.0895C9.13563 11.9832 9.14683 11.9718 9.3009 11.986C9.41003 11.996 9.46889 11.9727 9.46012 11.9228C9.45246 11.8794 9.46764 11.8477 9.49387 11.8524C9.625 11.8762 9.70175 11.8409 9.70395 11.7558C9.7053 11.7039 9.73681 11.6622 9.77399 11.6631C9.81117 11.6641 9.82602 11.6385 9.807 11.6064C9.78797 11.5742 9.80885 11.5345 9.85341 11.5181C9.90228 11.5001 9.89016 11.4851 9.82284 11.4804C9.76148 11.4762 9.71183 11.4509 9.71252 11.4244C9.71324 11.3978 9.61324 11.3782 9.49038 11.3809C9.36752 11.3835 9.28358 11.3606 9.30385 11.33C9.32411 11.2995 9.27986 11.273 9.2055 11.2711C9.13114 11.2692 9.08879 11.2398 9.11138 11.2058C9.13397 11.1717 9.11896 11.143 9.07803 11.142C9.03525 11.1409 9.02183 11.0966 9.04648 11.0378C9.08232 10.9523 9.07309 10.9482 8.99009 11.0126C8.90867 11.0759 8.89127 11.0727 8.89327 10.995C8.89462 10.9429 8.95355 10.8869 9.02423 10.8705C9.10159 10.8527 9.15411 10.7879 9.15618 10.7079C9.15907 10.596 9.13176 10.5801 8.98314 10.6072C8.83831 10.6336 8.82663 10.6276 8.918 10.5733C9.02145 10.5119 9.01992 10.496 8.89632 10.3484C8.82316 10.2611 8.72061 10.1886 8.66843 10.1873C8.47635 10.1824 8.64988 10.1205 8.90815 10.1017C9.06367 10.0904 9.15871 10.1065 9.13632 10.1402C9.11521 10.172 9.12667 10.1988 9.16178 10.1997C9.19688 10.2005 9.24088 10.1782 9.25955 10.1501C9.27822 10.1219 9.3881 10.1066 9.50372 10.1159C9.61935 10.1253 9.74797 10.1081 9.78954 10.0777C9.83598 10.0437 9.88045 10.0482 9.90488 10.0895C9.9318 10.135 9.9836 10.1374 10.0653 10.0969C10.1316 10.064 10.2526 10.0412 10.3342 10.0462C10.5607 10.06 11.3446 10.0108 11.3995 9.97927C11.4422 9.95471 12.1412 9.88467 12.3551 9.88352C12.4672 9.88293 12.4626 9.58698 12.3492 9.49963C12.2976 9.45988 12.2511 9.3487 12.2458 9.25256C12.2397 9.14398 12.2061 9.08825 12.1569 9.10546C12.1105 9.12168 12.0923 9.0982 12.113 9.0488C12.1361 8.99368 12.0823 8.94838 11.9579 8.91814C11.7486 8.86729 11.6024 8.72623 11.6634 8.63412C11.6855 8.60093 11.6464 8.58822 11.5739 8.60498C11.4823 8.62615 11.4461 8.60375 11.4481 8.52709C11.4496 8.46791 11.3938 8.40323 11.324 8.38337C11.1824 8.34304 11.1615 8.26558 11.2748 8.20048C11.3217 8.17348 11.3315 8.18467 11.3012 8.23047C11.2745 8.27063 11.2765 8.30004 11.3056 8.29581C11.4423 8.27591 11.5174 8.31563 11.5151 8.40665C11.5117 8.53637 11.6663 8.48988 11.6971 8.35189C11.7102 8.29359 11.697 8.24938 11.6677 8.25365C11.491 8.2795 11.3919 8.22785 11.3949 8.11135C11.3968 8.0401 11.4266 8.00002 11.4611 8.02229C11.4957 8.04456 11.5254 8.00448 11.5273 7.93323C11.5291 7.86197 11.5707 7.80468 11.6196 7.80591C11.6685 7.80714 11.7267 7.76463 11.749 7.71144C11.7713 7.65826 11.7629 7.63007 11.7304 7.64879C11.6978 7.66751 11.6597 7.64676 11.6456 7.60271C11.6316 7.55865 11.6264 7.57233 11.634 7.63312C11.6417 7.69392 11.6219 7.743 11.5901 7.7422C11.5583 7.74138 11.5331 7.70703 11.5342 7.66581C11.5353 7.62459 11.4941 7.64462 11.4427 7.71033C11.3741 7.79803 11.3685 7.84221 11.4216 7.87645C11.4632 7.90323 11.4378 7.91751 11.3621 7.90997C11.245 7.8983 11.1666 7.73157 11.2796 7.73441C11.3045 7.735 11.3442 7.65103 11.368 7.54774C11.4023 7.39858 11.4443 7.36078 11.5723 7.36399C11.661 7.36622 11.7342 7.33973 11.7351 7.30512C11.736 7.27051 11.7942 7.24365 11.8644 7.24541C11.9996 7.2488 12.0337 7.34135 11.9231 7.40492C11.8051 7.47279 11.9139 7.5466 12.1145 7.53484C12.3758 7.51952 12.4398 7.45037 12.2055 7.43658C12.0229 7.42584 12.0225 7.42487 12.1802 7.38486L12.3409 7.3441L12.1993 7.26348C12.0361 7.1706 12.0146 7.0603 12.1603 7.06395C12.215 7.06533 12.2413 7.09432 12.2187 7.12838C12.1962 7.16244 12.2081 7.19108 12.2453 7.19201C12.2824 7.19296 12.3143 7.13708 12.3161 7.06787C12.3181 6.99164 12.3619 6.9431 12.4273 6.94474C12.5212 6.9471 12.5195 6.93538 12.4137 6.85464C12.3166 6.78052 12.2852 6.77799 12.2581 6.84211C12.2374 6.89087 12.1776 6.90468 12.1056 6.87729C11.9943 6.8349 11.9939 6.82593 12.0981 6.72832C12.1591 6.67119 12.25 6.62548 12.3001 6.62674C12.3825 6.62881 12.4214 6.55336 12.4042 6.42473C12.4007 6.39867 12.4426 6.37847 12.4973 6.37985C12.5521 6.38122 12.581 6.35558 12.5616 6.32285C12.5158 6.24541 12.6389 6.1751 12.7241 6.23003C12.7691 6.25905 12.7656 6.29998 12.7129 6.35939C12.6576 6.42187 12.656 6.4468 12.7075 6.44809C12.7824 6.44997 12.8046 6.37432 12.7882 6.17386C12.7753 6.01718 12.8979 5.95133 13.1911 5.95751C13.3321 5.96048 13.4247 5.9339 13.4163 5.89284C13.4073 5.84826 13.5403 5.82565 13.7852 5.83015C13.9959 5.83402 14.205 5.8103 14.2498 5.77742C14.2947 5.74455 14.4145 5.73623 14.5162 5.75894C14.6478 5.78834 14.7258 5.76988 14.787 5.69488C14.8343 5.63694 14.847 5.61029 14.8151 5.63565C14.7832 5.66101 14.6791 5.55924 14.5838 5.40948C14.4885 5.25972 14.4097 5.16281 14.4087 5.19413C14.4078 5.22544 14.3509 5.19836 14.2823 5.13397C14.2137 5.06958 14.1592 4.9859 14.1613 4.94804C14.1633 4.91017 14.193 4.92947 14.2272 4.99093C14.2614 5.05239 14.3368 5.10386 14.3948 5.10532C14.4726 5.10727 14.4819 5.08908 14.4303 5.03558C14.3919 4.99577 14.3777 4.9222 14.3987 4.87211C14.4299 4.79762 14.4463 4.79656 14.4887 4.8663C14.5268 4.92907 14.5411 4.91836 14.5427 4.82571C14.5455 4.66832 14.4005 4.46205 14.3294 4.52227C14.3003 4.54697 14.2983 4.53185 14.325 4.48868C14.3518 4.4455 14.4 4.42713 14.4321 4.44786C14.4643 4.46859 14.4914 4.45724 14.4923 4.42263C14.4931 4.38802 14.4668 4.34229 14.4338 4.32099C14.3531 4.26896 14.4332 4.0869 14.5802 3.98812C14.6457 3.94411 14.6816 3.87823 14.66 3.84171C14.6344 3.7985 14.6732 3.79246 14.7712 3.82441C14.8941 3.8645 14.9074 3.858 14.844 3.78891C14.7496 3.68613 14.7467 3.49588 14.8391 3.46807C14.9026 3.44898 14.92 3.34059 14.9002 3.08753C14.895 3.02172 14.8379 2.97539 14.7586 2.97283C14.6822 2.97034 14.6553 2.9496 14.6953 2.92402C14.7959 2.85979 14.8609 2.67142 14.7967 2.63009C14.7666 2.6107 14.7282 2.63007 14.7114 2.67315C14.6945 2.71623 14.6643 2.73608 14.6444 2.71726C14.6244 2.69844 14.6345 2.64316 14.6668 2.5944C14.7164 2.51964 14.7457 2.52465 14.8541 2.62643C14.9797 2.74427 14.9829 2.74429 14.9908 2.62738C14.9953 2.56102 15.0124 2.54306 15.0291 2.5871C15.0457 2.6308 15.0887 2.66729 15.1246 2.6682C15.1605 2.66914 15.1746 2.62729 15.1559 2.5753C15.1372 2.5233 15.1423 2.48551 15.1672 2.49131C15.1922 2.49712 15.2948 2.47082 15.3954 2.43287C15.4959 2.39493 15.604 2.38057 15.6357 2.40097C15.6674 2.42138 15.6941 2.40641 15.6951 2.36772C15.696 2.32903 15.7232 2.31434 15.7554 2.33507C15.7875 2.3558 15.8315 2.34621 15.853 2.31376C15.8745 2.28131 15.9418 2.25625 16.0026 2.25806C16.1788 2.26334 16.2887 2.23142 16.583 2.08949C16.735 2.0162 16.8991 1.95723 16.9478 1.95845C16.9965 1.95967 17.0488 1.92648 17.0642 1.8847C17.094 1.80344 17.6903 1.77874 17.6883 1.85884C17.6877 1.88437 17.7666 1.88558 17.8638 1.86152C18.0554 1.81411 18.4613 1.83414 18.755 1.9055C18.9073 1.94252 18.9543 1.92406 19.0266 1.79867C19.0747 1.7153 19.0976 1.61946 19.0777 1.5857C19.0262 1.49866 18.5955 1.42841 17.8919 1.39231C17.5586 1.3752 17.2234 1.32555 17.1469 1.28196C17.0704 1.23838 16.985 1.20589 16.9571 1.20976C16.9293 1.21363 16.8022 1.21082 16.6747 1.20351C16.5003 1.19353 16.4355 1.15891 16.4129 1.06356C16.3884 0.960661 16.4146 0.937307 16.5523 0.939141C16.7143 0.941293 16.7166 0.937163 16.6019 0.847003C16.4945 0.76259 16.5436 0.755717 17.0663 0.781968C17.3878 0.798113 17.6506 0.82867 17.6502 0.849869C17.6498 0.87107 17.7287 0.881319 17.8255 0.872647C18.259 0.833827 18.92 0.796649 19.1643 0.79735C19.3111 0.797823 19.4177 0.775388 19.4013 0.747617C19.3849 0.719845 19.4235 0.694236 19.4871 0.690708C19.7388 0.676753 19.7992 0.666709 19.9106 0.620316C19.9743 0.593806 20.0841 0.467227 20.1547 0.339028C20.285 0.102399 20.4937 -0.0317986 20.5332 0.0957139C20.5483 0.144471 20.5838 0.142929 20.6512 0.0905915C20.7123 0.043137 20.7628 0.0388088 20.789 0.0787639C20.8327 0.145276 21.8626 0.17169 21.9306 0.108058C21.9524 0.0876307 22.0034 0.0995072 22.044 0.134449C22.1222 0.201879 22.5077 0.201041 22.6257 0.133182C22.6644 0.110955 22.7944 0.122241 22.9148 0.158262C23.0351 0.194285 23.6632 0.251414 24.3107 0.285216C24.9581 0.319019 25.8609 0.370067 26.3168 0.398655C28.7742 0.552743 29.5247 0.587768 31.0536 0.619717C32.2547 0.644814 32.7289 0.674744 32.7275 0.725384C32.7262 0.776483 32.7493 0.777691 32.8111 0.729748C32.8973 0.662802 33.282 0.654691 34.389 0.696491C34.7224 0.70908 35.024 0.717736 35.0591 0.715724C35.0943 0.713713 35.4398 0.692991 35.8268 0.669675C36.2138 0.646361 36.578 0.643123 36.636 0.662482C36.694 0.681844 36.7572 0.674016 36.7763 0.645096C36.7955 0.616173 37.0501 0.59227 37.342 0.59198C37.6339 0.591744 38.0377 0.56699 38.2394 0.537085C38.441 0.507184 38.9735 0.479279 39.4226 0.475074C39.8717 0.470851 40.4406 0.461723 40.6866 0.454769C40.9327 0.447813 41.1871 0.47078 41.2519 0.505803C41.3167 0.540825 41.3545 0.543674 41.3358 0.512131C41.3166 0.479644 41.5698 0.463851 41.9199 0.475702C42.2598 0.487211 42.6392 0.465316 42.7631 0.42705C42.9332 0.37452 42.9994 0.375594 43.0335 0.43144C43.0643 0.482015 43.0795 0.483499 43.0814 0.436124C43.083 0.393486 43.2622 0.365896 43.5473 0.364344C44.1807 0.360902 46.1089 0.402787 46.4997 0.428483C46.6751 0.440016 47.0775 0.438313 47.394 0.424722C48.1576 0.39191 49.3427 0.402524 49.3417 0.442168C49.3404 0.491118 49.6472 0.476509 50.1598 0.403213C50.4169 0.366444 50.7046 0.358444 50.799 0.385438C51.02 0.448653 51.4487 0.475077 51.4499 0.425563C51.4504 0.404574 51.5299 0.389462 51.6264 0.391981C53.4119 0.438566 56.7822 0.405111 56.896 0.33968C56.9234 0.323902 56.9452 0.336072 56.9444 0.36673C56.9436 0.397385 57.0291 0.412205 57.1344 0.399664C57.2397 0.387122 57.3759 0.399072 57.4371 0.426263C57.578 0.488798 57.8328 0.514282 57.8023 0.462788C57.7896 0.441419 58.2733 0.442269 58.877 0.464681C59.4808 0.487089 59.9746 0.510272 59.9745 0.516201C59.9745 0.522127 60.1536 0.537083 60.3729 0.549435C60.5921 0.561786 60.772 0.553646 60.7725 0.531328C60.7731 0.509018 60.8737 0.515676 60.996 0.546125C61.1184 0.576574 61.2315 0.581901 61.2473 0.557965C61.2632 0.534026 61.5364 0.522585 61.8545 0.532543C62.1992 0.54333 62.4337 0.525244 62.4353 0.487748C62.4369 0.450663 62.4564 0.453431 62.483 0.494491C62.539 0.580804 63.0213 0.588488 63.0876 0.504131C63.12 0.462968 63.1359 0.46337 63.1354 0.505339C63.1354 0.539961 63.2426 0.567676 63.3743 0.566937C63.5061 0.566227 63.6798 0.591814 63.7603 0.623859C63.8479 0.65871 63.9545 0.658424 64.0257 0.62315C64.1404 0.566299 64.4084 0.548814 65.7871 0.508225C66.1386 0.497875 66.7142 0.471146 67.0661 0.448827C67.4179 0.426507 68.2086 0.41721 68.8231 0.428166C69.4376 0.439131 70.0558 0.429702 70.1969 0.407247C70.338 0.384784 71.1142 0.377746 71.9218 0.391605C73.8186 0.424153 75.2461 0.409068 75.8146 0.350468C76.0637 0.324802 76.5988 0.269607 77.0039 0.227814C77.409 0.186022 78.0859 0.127875 78.5083 0.0985982C78.9306 0.0693197 79.4057 0.0344325 79.5641 0.0210696C80.0832 -0.0227073 80.6113 0.00229268 81.0381 0.0908496C81.3073 0.146692 82.1259 0.194125 83.3213 0.223147C84.3462 0.248033 85.2046 0.280672 85.2289 0.295683C85.2531 0.310696 86.3352 0.368139 87.6336 0.423336C88.932 0.478533 90.2237 0.542789 90.5042 0.566128C92.0787 0.697168 93.2741 0.751116 95.8951 0.809428C96.2638 0.817625 96.6657 0.835755 96.7883 0.849707C97.0534 0.879882 98.2807 0.965398 99.4342 1.03407C101.927 1.18248 102.857 1.23028 104.537 1.29633C105.555 1.33634 106.488 1.38694 106.61 1.40876C106.733 1.43058 107.062 1.46457 107.343 1.4843C107.862 1.5208 108.455 1.60478 108.531 1.65265C108.554 1.6672 108.769 1.69879 109.008 1.72285C109.247 1.74691 109.615 1.79784 109.825 1.83603C110.034 1.87423 110.292 1.91927 110.397 1.93614C110.502 1.953 110.821 2.03232 111.106 2.11241C111.39 2.1925 111.683 2.25953 111.756 2.26136C111.83 2.2632 111.889 2.2883 111.888 2.31714C111.887 2.34597 111.923 2.37079 111.966 2.37228C112.398 2.38694 113.428 2.50963 113.589 2.56555C113.702 2.60451 113.852 2.72196 113.924 2.82655C114.065 3.03309 114.448 3.24471 114.801 3.31153C115.242 3.39512 116.006 3.48444 116.166 3.47117C116.256 3.46372 116.329 3.48816 116.328 3.52548C116.327 3.56281 116.346 3.5747 116.37 3.55191C116.395 3.52912 116.473 3.56742 116.545 3.63703C116.616 3.70664 116.866 3.86817 117.1 3.996C117.441 4.18223 117.615 4.2357 117.978 4.26508C118.456 4.30389 118.541 4.35994 118.487 4.60273C118.453 4.75746 118.196 4.87852 117.916 4.8715C117.836 4.86948 117.751 4.89569 117.729 4.92975C117.706 4.96382 117.59 4.98924 117.471 4.98625C117.135 4.9778 116.607 5.09275 116.606 5.17437C116.606 5.30859 117.089 5.48471 117.564 5.52369C117.821 5.5448 118.419 5.58853 118.893 5.62087C119.849 5.68618 119.949 5.70582 119.996 5.83736C120.066 6.03129 119.172 6.66247 118.444 6.93356C118.209 7.02103 118.09 7.11049 118.008 7.26076C117.867 7.51866 117.929 7.64454 118.307 7.87722C118.454 7.96751 118.573 8.08467 118.572 8.13759C118.571 8.19051 118.612 8.27737 118.663 8.3306C118.808 8.48155 118.769 8.63301 118.552 8.75169C118.443 8.8115 118.228 8.97207 118.074 9.10851C117.839 9.31621 117.743 9.35908 117.48 9.37188C117.249 9.38315 117.137 9.42311 117.056 9.52364C116.995 9.5987 116.959 9.68248 116.975 9.70983C116.991 9.73717 116.975 9.7588 116.939 9.7579C116.903 9.75696 116.839 9.81913 116.796 9.89596C116.753 9.97279 116.739 10.0163 116.767 9.99267C116.834 9.93382 117.006 10.1209 116.955 10.1978C116.931 10.2336 116.962 10.2474 117.03 10.2306C117.093 10.2147 117.03 10.2552 116.887 10.3205C116.745 10.3859 116.537 10.4378 116.425 10.4359C116.313 10.434 116.147 10.4582 116.056 10.4897C115.935 10.5318 115.891 10.5265 115.891 10.4698C115.891 10.4274 115.861 10.4404 115.825 10.4988C115.699 10.6993 115.814 10.9221 116.13 11.0901C116.294 11.1771 116.471 11.3166 116.523 11.4001C116.576 11.4837 116.731 11.5882 116.868 11.6325C117.379 11.7976 117.451 12.1257 117.001 12.2409C116.721 12.3124 116.583 12.5125 116.662 12.7331C116.702 12.8478 116.7 12.8999 116.654 12.8988C116.536 12.8958 116.42 13.0498 116.422 13.2046C116.425 13.3578 116.42 13.3603 115.879 13.4693C115.791 13.4871 115.631 13.5737 115.523 13.6617C115.415 13.7497 115.247 13.8603 115.149 13.9074C115.052 13.9545 114.97 14.0338 114.969 14.0836C114.966 14.2004 114.734 14.3156 114.458 14.3375C114.156 14.3613 114.032 14.4356 114.015 14.6016C114.001 14.74 114.246 15.0419 114.375 15.0452C114.454 15.0472 114.807 15.4179 114.805 15.4966C114.802 15.6043 114.57 15.6725 114.124 15.6967C113.881 15.71 113.537 15.7473 113.36 15.7797C113.068 15.8333 112.025 15.9815 111.788 16.0031C111.688 16.0122 111.639 16.2357 111.736 16.2381C111.765 16.2388 111.758 16.2916 111.721 16.3554C111.685 16.4192 111.674 16.4916 111.698 16.5164C111.778 16.5994 111.728 17.3981 111.638 17.4866C111.59 17.5329 111.419 17.5762 111.257 17.5828C110.996 17.5936 110.822 17.6881 110.879 17.7876C110.89 17.8069 110.858 17.8581 110.808 17.9015C110.758 17.9449 110.717 17.9595 110.718 17.9339C110.719 17.9083 110.685 17.9198 110.642 17.9595C110.586 18.0121 110.543 18.0124 110.483 17.9604C110.422 17.9084 110.348 17.909 110.206 17.9626C109.881 18.0862 109.982 18.2782 110.419 18.3673C110.909 18.4669 111.018 18.5122 110.941 18.5842C110.92 18.6038 110.466 18.6179 109.931 18.6157C108.794 18.6108 108.663 18.6589 108.559 19.1184C108.525 19.267 108.426 19.4931 108.34 19.6208C108.197 19.8319 108.084 20.1074 108.073 20.2701C108.071 20.3047 107.972 20.3396 107.854 20.3478C107.706 20.358 107.628 20.4003 107.604 20.4825C107.584 20.5484 107.544 20.5861 107.513 20.5664C107.482 20.5467 107.457 20.5593 107.456 20.5945C107.455 20.6297 107.322 20.7303 107.161 20.818C106.704 21.0669 106.636 21.2776 106.969 21.4121C107.125 21.4751 107.131 21.5226 107.019 21.7862C106.936 21.9794 107.143 22.1096 107.827 22.2948C108.49 22.4741 108.674 22.5921 108.48 22.7126C108.36 22.7874 107.495 22.6922 106.134 22.4545C105.518 22.3469 105.258 22.3894 105.115 22.6213C104.972 22.8524 104.825 22.9182 104.401 22.9406C104.049 22.9592 103.718 23.1225 103.714 23.2794C103.711 23.3757 103.992 23.4737 104.318 23.49C104.563 23.5024 104.85 23.6754 104.707 23.7242C104.662 23.7395 104.582 23.7929 104.528 23.8429C104.475 23.8929 104.432 23.9169 104.432 23.8962C104.434 23.8201 104.041 24.0491 103.961 24.1704C103.862 24.3216 103.526 24.525 103.394 24.514C103.065 24.4868 102.628 24.5184 102.626 24.5695C102.624 24.6671 102.953 24.9548 103.022 24.9152C103.057 24.8952 103.065 24.9092 103.041 24.9461C103.016 24.9831 103.025 25.0322 103.061 25.0552C103.097 25.0782 103.108 25.1241 103.086 25.1573C103.064 25.1905 103.08 25.261 103.123 25.314C103.243 25.4645 103.12 25.5216 102.632 25.5425C102.387 25.5531 102.056 25.5864 101.897 25.6166C101.738 25.6469 101.204 25.7226 100.711 25.7849C100.217 25.8473 99.6523 25.9482 99.4551 26.0093C99.2537 26.0718 98.9236 26.1161 98.7012 26.1105C98.4837 26.105 98.0964 26.1529 97.8405 26.2168C97.4011 26.3266 97.2507 26.3281 95.142 26.2437C93.9137 26.1945 92.6649 26.1357 92.3669 26.113C91.5903 26.0538 90.6357 25.9617 90.5046 25.9334C90.4429 25.92 89.6963 25.8723 88.8455 25.8273C87.6289 25.763 87.114 25.7619 86.4343 25.8221C85.9589 25.8643 85.0855 25.9038 84.4932 25.9099C83.901 25.9161 83.3114 25.9311 83.183 25.9432C82.7399 25.9852 81.2202 26.0467 80.3284 26.0588C79.8364 26.0655 78.9448 26.0854 78.3472 26.1031C77.7495 26.1207 76.542 26.1345 75.6638 26.1336C74.7855 26.1328 73.9806 26.1392 73.875 26.1479C73.7693 26.1567 73.0476 26.1661 72.2711 26.1688C71.4946 26.1715 70.7758 26.1816 70.6737 26.1912C70.4774 26.2097 69.9938 26.2303 68.2824 26.293C66.9391 26.3422 65.9304 26.4076 65.0975 26.4996C64.7353 26.5396 64.3292 26.5696 64.1951 26.5662C64.061 26.5628 63.8673 26.5846 63.7646 26.6145C63.662 26.6445 63.3965 26.6792 63.1745 26.6916C62.9526 26.704 62.4912 26.7633 62.1492 26.8234C61.8071 26.8834 61.3546 26.9433 61.1435 26.9565C60.9324 26.9697 60.5435 27.0025 60.2793 27.0296C60.0151 27.0566 59.6263 27.0886 59.4152 27.1007C59.2041 27.1128 58.7188 27.1584 58.3368 27.2022C57.9547 27.2459 57.4074 27.2926 57.1205 27.3059C56.8336 27.3193 56.4337 27.3473 56.2318 27.3682C56.0299 27.3891 55.5122 27.4031 55.0813 27.3992C54.6504 27.3953 54.0818 27.4126 53.8177 27.4376C53.2963 27.4869 52.1867 27.5184 51.3248 27.5084C51.0263 27.5049 50.6522 27.5227 50.4935 27.5479C50.3347 27.5731 49.2422 27.5846 48.0656 27.5734C46.8891 27.5623 45.8644 27.5642 45.7886 27.5776C45.7129 27.591 45.0945 27.6071 44.4145 27.6134C43.7345 27.6198 43.0342 27.6303 42.8584 27.6368C42.6826 27.6432 42.0356 27.6532 41.4207 27.6589C40.8058 27.6647 40.058 27.6817 39.7591 27.6968C39.4601 27.7118 39.1869 27.7159 39.152 27.7057C39.1172 27.6956 38.6714 27.7075 38.1613 27.7321C37.6513 27.7567 36.9464 27.7853 36.5948 27.7955C36.2433 27.8058 35.8548 27.8232 35.7315 27.8343C35.6083 27.8454 35.1193 27.8629 34.645 27.8732C34.1706 27.8835 33.7677 27.9004 33.7498 27.9107C33.7318 27.9211 33.3576 27.9387 32.9182 27.9501C32.4788 27.9614 32.0615 27.9805 31.9909 27.9927C31.8617 28.0149 27.3381 27.983 25.3813 27.9461C24.802 27.9351 23.8402 27.8933 23.2441 27.8532ZM10.29 19.7388C10.3218 19.7375 10.2963 19.6773 10.2333 19.6051C10.1353 19.4927 10.0546 19.4748 9.67287 19.4808C9.4276 19.4847 9.21602 19.5179 9.20268 19.5545C9.16776 19.6505 9.60766 19.7687 9.94437 19.7538C10.1026 19.7468 10.2582 19.74 10.29 19.7388ZM11.8849 16.3399C11.8852 16.3247 11.8569 16.3115 11.8218 16.3106C11.7867 16.3098 11.7572 16.339 11.7562 16.3756C11.7553 16.4123 11.7837 16.4255 11.8193 16.405C11.855 16.3845 11.8845 16.3552 11.8849 16.3399ZM8.67802 14.381C8.67838 14.3674 8.63452 14.3383 8.58057 14.3164C8.52432 14.2934 8.49842 14.3033 8.51986 14.3396C8.55581 14.4003 8.67671 14.432 8.67802 14.381ZM9.43991 12.3934C9.37846 12.3301 9.37094 12.3372 9.40327 12.4277C9.42563 12.4904 9.46042 12.5262 9.48057 12.5073C9.50073 12.4884 9.48242 12.4372 9.43991 12.3934ZM9.97007 11.6512C9.90862 11.5879 9.9011 11.595 9.93342 11.6855C9.95579 11.7482 9.99058 11.784 10.0107 11.7651C10.0309 11.7462 10.0126 11.6949 9.97007 11.6512ZM9.49274 11.2782C9.47193 11.2431 9.44225 11.214 9.42677 11.2136C9.41128 11.2132 9.39788 11.2412 9.39699 11.2758C9.39615 11.3104 9.42578 11.3395 9.46296 11.3404C9.50014 11.3414 9.51354 11.3134 9.49274 11.2782ZM12.1036 8.34161C12.0579 8.32227 12.0028 8.32312 11.9811 8.3435C11.9593 8.36387 11.9967 8.37969 12.064 8.37865C12.1384 8.37747 12.154 8.36297 12.1036 8.34161ZM12.0958 8.17654C12.0002 8.09463 11.8489 7.84562 11.8508 7.77329C11.8514 7.75128 11.8947 7.77019 11.947 7.8153C12.0711 7.92218 12.1464 7.85055 12.0443 7.72279C11.9546 7.61047 11.789 7.69349 11.7848 7.85287C11.7836 7.90259 11.7601 7.92882 11.7327 7.91118C11.7053 7.89353 11.6773 7.93365 11.6705 8.00034C11.6622 8.08157 11.6989 8.12261 11.7818 8.12469C11.8498 8.12641 11.9048 8.15611 11.9039 8.19072C11.903 8.22532 11.9669 8.25436 12.0459 8.25525C12.1692 8.25663 12.1763 8.24545 12.0958 8.17654ZM11.7163 8.03233C11.7167 8.01707 11.7462 7.9878 11.7819 7.9673C11.8175 7.94679 11.8459 7.96 11.845 7.99664C11.844 8.03329 11.8146 8.06256 11.7794 8.06167C11.7443 8.06085 11.7159 8.04759 11.7163 8.03233ZM12.879 6.75137C12.8849 6.67361 12.875 6.6452 12.8569 6.68825C12.8388 6.73129 12.7984 6.75006 12.7672 6.72994C12.736 6.70983 12.7265 6.73775 12.746 6.79198C12.7977 6.93559 12.8666 6.91454 12.879 6.75137ZM12.552 6.69175C12.6235 6.5839 12.5459 6.55873 12.4557 6.66052C12.4038 6.71905 12.398 6.75503 12.4403 6.75609C12.4777 6.75704 12.5279 6.72808 12.552 6.69175ZM14.6797 4.58396C14.6801 4.57036 14.6377 4.54185 14.5855 4.52061C14.5334 4.49937 14.49 4.50941 14.4891 4.54293C14.4883 4.57645 14.5307 4.60496 14.5833 4.60628C14.636 4.60761 14.6794 4.59755 14.6797 4.58396ZM3.90585 21.0894C3.90669 21.0569 3.93656 21.0134 3.97222 20.9929C4.00788 20.9724 4.03591 20.9998 4.03452 21.0537C4.03313 21.1077 4.00326 21.1511 3.96815 21.1502C3.93305 21.1494 3.90501 21.122 3.90585 21.0894ZM6.64184 15.981C6.67988 15.9454 6.74836 15.9296 6.79401 15.9459C6.84141 15.9628 6.81174 15.9906 6.72485 16.0106C6.61797 16.0353 6.59327 16.0265 6.64184 15.981ZM7.54998 16.0144C7.48444 15.9703 7.48013 15.949 7.53582 15.9442C7.67619 15.9322 7.71038 15.9231 7.78864 15.8768C7.83077 15.8518 7.88517 15.8651 7.90953 15.9062C7.93718 15.953 7.92658 15.9635 7.88128 15.9343C7.8383 15.9066 7.80771 15.9276 7.80621 15.9857C7.80335 16.0964 7.69047 16.109 7.54998 16.0144ZM7.22497 15.8646C7.27451 15.8182 7.32116 15.8159 7.36165 15.8579C7.40213 15.8998 7.37645 15.9239 7.28643 15.9283C7.18349 15.9334 7.16832 15.9176 7.22497 15.8646ZM8.85515 14.9417C8.85654 14.8877 8.88595 14.8618 8.92051 14.8841C8.95506 14.9064 8.98264 14.9512 8.9818 14.9838C8.98096 15.0163 8.95155 15.0423 8.91644 15.0414C8.88133 15.0406 8.85375 14.9956 8.85515 14.9417ZM8.95332 13.8919C9.06247 13.6973 9.07352 13.6918 9.05834 13.8399C9.05095 13.912 9.00685 13.9843 8.96033 14.0006C8.8928 14.0242 8.89139 14.0023 8.95332 13.8919ZM9.39297 11.5931C9.33957 11.5586 9.37039 11.5298 9.48837 11.5037C9.70223 11.4565 9.74313 11.4862 9.58819 11.5763C9.5242 11.6135 9.43636 11.621 9.39297 11.5931ZM10.7927 7.36925C10.8144 7.34888 10.8695 7.34802 10.9152 7.36736C10.9656 7.38872 10.95 7.40325 10.8756 7.4044C10.8082 7.40547 10.7709 7.38963 10.7927 7.36925ZM10.9907 7.12238C11.0124 7.102 11.0675 7.10115 11.1132 7.12049C11.1636 7.14185 11.148 7.15638 11.0736 7.15753C11.0062 7.1586 10.9689 7.14276 10.9907 7.12238ZM12.1482 6.34476C12.1471 6.27836 12.1632 6.24158 12.1839 6.26302C12.2045 6.28446 12.2054 6.33879 12.1858 6.38374C12.1641 6.43343 12.1494 6.41814 12.1482 6.34476ZM14.4676 2.90344C14.4111 2.86535 14.4038 2.84042 14.4495 2.84099C14.4913 2.84158 14.5426 2.87069 14.5634 2.90584C14.6103 2.98519 14.5882 2.98463 14.4676 2.90344Z" fill="#FADA9B"/>
</svg>
