<svg fill="none" height="28" viewBox="0 0 120 28" width="120" xmlns="http://www.w3.org/2000/svg"><path d="m23.2441 27.8532c-.5962-.0401-1.6007-.0992-2.2322-.1315-2.2482-.1147-3.6383-.1983-3.8264-.23-.1049-.0177-.5207-.0544-.924-.0816-.4033-.0271-.8333-.0701-.9556-.0955-.1223-.0255-.4089-.0595-.6368-.0758-.7518-.0534-1.4425-.1565-1.9896-.2969-.2121-.0544-.4142-.0825-.4492-.0624s-.0441.0071-.0202-.0289c.0294-.0443-.1829-.0736-.6571-.0906-.3852-.0138-.7429-.0425-.7949-.0637-.0519-.0211-.1107-.1375-.1305-.2586-.041-.2504-.1081-.2889-.71756-.412-.22716-.0459-.58394-.1427-.79285-.215-.20891-.0724-.45529-.1478-.54751-.1677-.2633-.0566-.25863-.1957.01544-.4603.2882-.2782.51542-.394.97784-.4986.29983-.0677.71014-.3487.71374-.4888.0012-.047-.2736-.1385-.66494-.2212-.10482-.0222-.44847-.0625-.76366-.0895-.31519-.0271-.73436-.0948-.93148-.1505-.21908-.0619-.65958-.1088-1.13317-.1207-.84105-.0211-1.2007-.1193-1.25379-.3425-.01798-.0756-.17495-.1952-.39909-.3041-.2032-.0988-.3541-.2027-.33533-.231.01876-.0283-.00361-.0395-.04972-.0249-.20711.0654-.51548-.0789-.62466-.2925-.119-.2328-.06296-.4474.11564-.4429.05143.0013.09428-.0189.09523-.0449.00096-.0259.19559-.0504.43255-.0545.23695-.004.4411-.0343.45366-.0673s.0762-.0586.14142-.057c.06521.0017.13706-.0249.15965-.0589.02259-.0341.0698-.0612.1049-.0604.03511.0009.04921.0237.03134.0506-.01787.027.05169.05.15458.0513.11049.0013.18796-.0316.18922-.0803.0012-.0454.0304-.0643.06496-.042.03455.0223.06352.0135.06437-.0194.00251-.0971-.16364-.1367-.45748-.1091-.15119.0142-.40332-.0096-.56029-.053-.15696-.0433-.32826-.0881-.38066-.0995s-.14542-.0433-.20671-.0708c-.06129-.0276-.1688-.0369-.23892-.0207-.16306.0377-.21649-.0493-.09041-.1472.05338-.0415.09685-.0507.09661-.0205s.02139.0272.04808-.0068c.08208-.1044.34-.2184.33822-.1494-.00096.0349.02877.0642.06595.0651.03718.001.05415-.021.03771-.0488-.04241-.0717.4701-.0701.59847.0018.06856.0384.1332.0349.18108-.01.08599-.0805.34328-.1072.29226-.0303-.05945.0896.14586.0599.22827-.0331.05868-.0662.11931-.0727.23619-.0255.20204.0815.2707.0814.15059-.0003-.07056-.048-.0382-.0614.12912-.0534.1228.0058.43954-.016.70385-.0486.26432-.0325.55749-.061.65149-.0633.27949-.0068.20458-.219-.16838-.4768-.21308-.1473-.31385-.2569-.28951-.315.02378-.0567.06307-.0678.1082-.0305.03898.0323.12891.0372.19984.0111.07094-.0261.23608-.0468.36699-.046.18422.0012.26402-.0355.35315-.1624.14478-.2061.16565-.3229.08572-.4796-.0347-.068-.03714-.107-.00541-.0865.03173.0204.09838-.0666.14811-.1933.04974-.1268.12283-.2505.16242-.2749.0396-.0245-.04288-.0482-.18328-.0528-.18855-.0062-.22984-.0237-.15795-.067.0738-.0444.04699-.06-.11097-.0647-.11456-.0034-.25751-.0331-.31766-.066-.06015-.0328-.37324-.171-.69574-.3071-.64678-.2729-1.02297-.3408-2.39804-.4331-1.05377-.0707-1.17215-.0865-1.3373-.1787-.16812-.0938-1.03711-.2456-1.58903-.2776-.2893-.0167-.5465-.0742-.73069-.1632-.15634-.0755-.427214-.16-.60194-.1877-.347471-.0552-.79226765-.223-.79032365-.2982.00072-.0261.16777065-.0968.37132365-.157.312798-.0925.577641-.105 1.71066-.0804.90507.0197 1.42024.005 1.5858-.045.23909-.0722.46811-.0556 1.05183.0766.15046.0341.5784.0748.95097.0905.37258.0156.73209.0591.79893.0965.07146.0401.21785.0508.35539.0261.12864-.023.2591-.0353.28992-.0271.11386.0301 2.05748.0592 2.27404.0341.36713-.0426.82783-.0686 1.46273-.0827.3293-.0073.6305-.0431.6695-.0796.0693-.0649-.0476-.1009-.2577-.0794-.0441.0046-.0792-.0243-.0782-.0642.0011-.0398-.0395-.0579-.0901-.0402s-.1264-.0109-.1684-.0634c-.0613-.0768-.0871-.0798-.131-.0153-.0445.0654-.0544.065-.0535-.0026.0007-.0524-.0434-.0702-.1199-.0484-.0806.023-.1345-.0028-.1613-.0773-.0222-.0615-.0092-.1212.0289-.1327.0984-.0296.263-.1918.2648-.261.0024-.0965-.2472-.3239-.3136-.2857-.034.0195-.0444-.006-.0231-.0567.0293-.07.004-.0841-.1058-.0587-.1147.0265-.1357.0125-.1019-.0681.0629-.1502-.0711-.2023-.1806-.0702-.06008.0723-.08207.0799-.06017.0205.03857-.1046-.25558-.2806-.36438-.218-.03748.0215-.04536.007-.01832-.0337.02608-.0393.017-.0723-.02017-.0732-.03718-.001-.0687.0408-.07004.0927-.00345.1332-.12975.1149-.13174-.0191-.0014-.0936-.00988-.0914-.05625.0144-.03004.0685-.04623.1401-.03599.1591.01025.0191-.03694.0374-.10485.0407-.14933.0073-.15677-.0426-.02024-.1359.07933-.0541.02305-.0669-.25895-.0587-.21284.0062-.34454-.0133-.3218-.0476.02137-.0322-.01873-.0448-.0901-.0283-.07478.0173-.1278-.0012-.12669-.0442.00108-.0407-.03223-.0544-.07395-.0304-.05329.0307-.06037.0082-.02381-.0756.02863-.0655.05961-.1576.06885-.2045.02875-.1461.19234-.1848.39062-.0925.10413.0485.15337.0895.10942.0913-.15686.0061-.08.129.08323.1331.12008.003.15706-.0218.13284-.0891-.01847-.0513-.00425-.1101.03158-.1307.04163-.024.03616-.0746-.01514-.1401-.06787-.0868-.06473-.0965.02028-.0627.05531.022.14178.0126.19215-.0208.07234-.048.06775-.0539-.02182-.0279-.09562.0277-.10605.0062-.06646-.1374.02583-.0937.07057-.1849.09943-.2027.09394-.058-.00463-.3068-.10732-.2709-.06661.0233-.08802-.0021-.07136-.0848.01742-.0864-.01056-.1153-.1042-.1074-.07042.0058-.09154-.0042-.04693-.0223.0446-.0182.06668-.0574.04908-.0871-.0176-.0298.02677-.0925.09861-.1395.07184-.0469.11213-.1045.08954-.1279-.02259-.0235.01399-.0417.08129-.0405.10045.0017.10579-.0089.02982-.0589-.06073-.0401-.10904-.0362-.14053.0113-.02639.0398-.06577.0539-.08751.0314-.03986-.0414.08546-.3051.17167-.3613.07047-.046.15856-.3324.09012-.293-.03234.0186-.09097-.02-.13027-.0857-.06361-.1063-.05241-.1177.10166-.1035.10913.01.16799-.0133.15922-.0632-.00766-.0434.00752-.0751.03375-.0704.13113.0238.20788-.0115.21008-.0966.00135-.0519.03286-.0936.07004-.0927.03718.001.05203-.0246.03301-.0567-.01903-.0322.00185-.0719.04641-.0883.04887-.018.03675-.033-.03057-.0377-.06136-.0042-.11101-.0295-.11032-.056.00072-.0266-.09928-.0462-.22214-.0435-.12286.0026-.2068-.0203-.18653-.0509.02026-.0305-.02399-.057-.09835-.0589s-.11671-.0313-.09412-.0653c.02259-.0341.00758-.0628-.03335-.0638-.04278-.0011-.0562-.0454-.03155-.1042.03584-.0855.02661-.0896-.05639-.0252-.08142.0633-.09882.0601-.09682-.0176.00135-.0521.06028-.1081.13096-.1245.07736-.0178.12988-.0826.13195-.1626.00289-.1119-.02442-.1278-.17304-.1007-.14483.0264-.15651.0204-.06514-.0339.10345-.0614.10192-.0773-.02168-.2249-.07316-.0873-.17571-.1598-.22789-.1611-.19208-.0049-.01855-.0668.23972-.0856.15552-.0113.25056.0048.22817.0385-.02111.0318-.00965.0586.02546.0595.0351.0008.0791-.0215.09777-.0496.01867-.0282.12855-.0435.24417-.0342.11563.0094.24425-.0078.28582-.0382.04644-.034.09091-.0295.11534.0118.02692.0455.07872.0479.16042.0074.0663-.0329.1873-.0557.2689-.0507.2265.0138 1.0104-.0354 1.0653-.06693.0427-.02456.7417-.0946.9556-.09575.1121-.00059.1075-.29654-.0059-.38389-.0516-.03975-.0981-.15093-.1034-.24707-.0061-.10858-.0397-.16431-.0889-.1471-.0464.01622-.0646-.00726-.0439-.05666.0231-.05512-.0307-.10042-.1551-.13066-.2093-.05085-.3555-.19191-.2945-.28402.0221-.03319-.017-.0459-.0895-.02914-.0916.02117-.1278-.00123-.1258-.07789.0015-.05918-.0543-.12386-.1241-.14372-.1416-.04033-.1625-.11779-.0492-.18289.0469-.027.0567-.01581.0264.02999-.0267.04016-.0247.06957.0044.06534.1367-.0199.2118.01982.2095.11084-.0034.12972.1512.08323.182-.05476.0131-.0583-.0001-.10251-.0294-.09824-.1767.02585-.2758-.0258-.2728-.1423.0019-.07125.0317-.11133.0662-.08906.0346.02227.0643-.01781.0662-.08906.0018-.07126.0434-.12855.0923-.12732s.1071-.04128.1294-.09447c.0223-.05318.0139-.08137-.0186-.06265-.0326.01872-.0707-.00203-.0848-.04608-.014-.04406-.0192-.03038-.0116.03041.0077.0608-.0121.10988-.0439.10908-.0318-.00082-.057-.03517-.0559-.07639s-.0401-.02119-.0915.04452c-.0686.0877-.0742.13188-.0211.16612.0416.02678.0162.04106-.0595.03352-.1171-.01167-.1955-.1784-.0825-.17556.0249.00059.0646-.08338.0884-.18667.0343-.14916.0763-.18696.2043-.18375.0887.00223.1619-.02426.1628-.05887s.0591-.06147.1293-.05971c.1352.00339.1693.09594.0587.15951-.118.06787-.0092.14168.1914.12992.2613-.01532.3253-.08447.091-.09826-.1826-.01074-.183-.01171-.0253-.05172l.1607-.04076-.1416-.08062c-.1632-.09288-.1847-.20318-.039-.19953.0547.00138.081.03037.0584.06443-.0225.03406-.0106.0627.0266.06363.0371.00095.069-.05493.0708-.12414.002-.07623.0458-.12477.1112-.12313.0939.00236.0922-.00936-.0136-.0901-.0971-.07412-.1285-.07665-.1556-.01253-.0207.04876-.0805.06257-.1525.03518-.1113-.04239-.1117-.05136-.0075-.14897.061-.05713.1519-.10284.202-.10158.0824.00207.1213-.07338.1041-.20201-.0035-.02606.0384-.04626.0931-.04488.0548.00137.0837-.02427.0643-.057-.0458-.07744.0773-.14775.1625-.09282.045.02902.0415.06995-.0112.12936-.0553.06248-.0569.08741-.0054.0887.0749.00188.0971-.07377.0807-.27423-.0129-.15668.1097-.22253.4029-.21635.141.00297.2336-.02361.2252-.06467-.009-.04458.124-.06719.3689-.06269.2107.00387.4198-.01985.4646-.05273.0449-.03287.1647-.04119.2664-.01848.1316.0294.2096.01094.2708-.06406.0473-.05794.06-.08459.0281-.05923s-.136-.07641-.2313-.22617-.1741-.24667-.1751-.21535c-.0009.03131-.0578.00423-.1264-.06016s-.1231-.14807-.121-.18593c.002-.03787.0317-.01857.0659.04289s.1096.11293.1676.11439c.0778.00195.0871-.01624.0355-.06974-.0384-.03981-.0526-.11338-.0316-.16347.0312-.07449.0476-.07555.09-.00581.0381.06277.0524.05206.054-.04059.0028-.15739-.1422-.36366-.2133-.30344-.0291.0247-.0311.00958-.0044-.03359.0268-.04318.075-.06155.1071-.04082.0322.02073.0593.00938.0602-.02523.0008-.03461-.0255-.08034-.0585-.10164-.0807-.05203-.0006-.23409.1464-.33287.0655-.04401.1014-.10989.0798-.14641-.0256-.04321.0132-.04925.1112-.0173.1229.04009.1362.03359.0728-.0355-.0944-.10278-.0973-.29303-.0049-.32084.0635-.01909.0809-.12748.0611-.38054-.0052-.06581-.0623-.11214-.1416-.1147-.0764-.00249-.1033-.02323-.0633-.04881.1006-.06423.1656-.2526.1014-.29393-.0301-.01939-.0685-.00002-.0853.04306-.0169.04308-.0471.06293-.067.04411-.02-.01882-.0099-.0741.0224-.12286.0496-.07476.0789-.06975.1873.03203.1256.11784.1288.11786.1367.00095.0045-.06636.0216-.08432.0383-.04028.0166.0437.0596.08019.0955.0811.0359.00094.05-.04091.0313-.0929-.0187-.052-.0136-.08979.0113-.08399.025.00581.1276-.02049.2282-.05844.1005-.03794.2086-.0523.2403-.0319.0317.02041.0584.00544.0594-.03325.0009-.03869.0281-.05338.0603-.03265.0321.02073.0761.01114.0976-.02131s.0888-.05751.1496-.0557c.1762.00528.2861-.02664.5804-.16857.152-.07329.3161-.13226.3648-.13104s.101-.03197.1164-.07375c.0298-.08126.6261-.10596.6241-.02586-.0006.02553.0783.02674.1755.00268.1916-.04741.5975-.02738.8912.04398.1523.03702.1993.01856.2716-.10683.0481-.08337.071-.17921.0511-.21297-.0515-.08704-.4822-.15729-1.1858-.19339-.3333-.01711-.6685-.06676-.745-.11035-.0765-.04358-.1619-.07607-.1898-.0722-.0278.00387-.1549.00106-.2824-.00625-.1744-.00998-.2392-.0446-.2618-.13995-.0245-.102899.0017-.126253.1394-.124419.162.002152.1643-.001978.0496-.092138-.1074-.084413-.0583-.091286.4644-.065035.3215.016145.5843.046702.5839.067901-.0004.021201.0785.03145.1753.022778.4335-.03882 1.0945-.075998 1.3388-.075297.1468.000473.2534-.021962.237-.049733-.0164-.027772.0222-.053381.0858-.056909.2517-.013955.3121-.023999.4235-.070392.0637-.02651.1735-.153089.2441-.281288.1303-.236629.339-.3708266.3785-.2433141.0151.0487571.0506.0472151.118-.0051224.0611-.0474545.1116-.0517827.1378-.0118276.0437.0665121 1.0736.0929261 1.1416.0292941.0218-.0204273.0728-.0085508.1134.026391.0782.06743.4637.066592.5817-.001267.0387-.022227.1687-.010941.2891.02508.1203.036023.7484.093152 1.3959.126954.6474.033803 1.5502.084851 2.0061.113439 2.4574.154088 3.2079.189113 4.7368.221062 1.2011.025097 1.6753.055027 1.6739.105667-.0013.051099.0218.052307.0836.004364.0862-.066946.4709-.075057 1.5779-.033257.3334.012589.635.021245.6701.019233.0352-.002011.3807-.022733.7677-.046049.387-.023314.7512-.026552.8092-.007193.058.019362.1212.011534.1403-.017386.0192-.028923.2738-.052826.5657-.053116.2919-.000236.6957-.02499.8974-.054895.2016-.029901.7341-.057806 1.1832-.062011.4491-.004223 1.018-.013351 1.264-.020305.2461-.006956.5005.016011.5653.051034.0648.035022.1026.037871.0839.006328-.0192-.032487.234-.04828.5841-.036429.3399.011509.7193-.010386.8432-.048652.1701-.05253.2363-.051456.2704.00439.0308.050575.046.052059.0479.004684.0016-.042638.1808-.070228.4659-.07178.6334-.003442 2.5616.038443 2.9524.064139.1754.011533.5778.00983.8943-.003761.7636-.032812 1.9487-.022198 1.9477.017446-.0013.04895.3055.034341.8181-.038955.2571-.036769.5448-.044769.6392-.017775.221.063215.6497.089639.6509.040125.0005-.020989.08-.036101.1765-.033582 1.7855.046585 5.1558.01313 5.2696-.052301.0274-.015778.0492-.003608.0484.02705-.0008.030655.0847.045475.19.032934.1053-.012542.2415-.000592.3027.026599.1409.062535.3957.088019.3652.036525-.0127-.021369.471-.020519 1.0747.001893.6038.022408 1.0976.045591 1.0975.05152 0 .005926.1791.020882.3984.033234.2192.012351.3991.004211.3996-.018107.0006-.02231.1012-.015652.2235.014797.1224.030449.2355.035776.2513.01184.0159-.023939.2891-.03538.6072-.025422.3447.010787.5792-.007299.5808-.044795.0016-.037085.0211-.034317.0477.006743.056.086313.5383.093997.6046.00964.0324-.041163.0483-.040761.0478.001208 0 .034622.1072.062337.2389.061598.1318-.00071.3055.024877.386.056922.0876.034851.1942.034565.2654-.000709.1147-.056851.3827-.074336 1.7614-.114925.3515-.01035.9271-.037079 1.279-.059398.3518-.02232 1.1425-.031617 1.757-.020661.6145.010965 1.2327.001536 1.3738-.020919.1411-.022463.9173-.029501 1.7249-.015642 1.8968.032548 3.3243.017463 3.8928-.041137.2491-.025666.7842-.080861 1.1893-.122654.4051-.041792 1.082-.099939 1.5044-.1292158.4223-.0292785.8974-.0641657 1.0558-.0775286.5191-.0437769 1.0472-.01877692 1.474.06978.2692.0558424 1.0878.1032754 2.2832.1322974 1.0249.024886 1.8833.057525 1.9076.072536.0242.015013 1.1063.072456 2.4047.127653s2.5901.119453 2.8706.142792c1.5745.13104 2.7699.184988 5.3909.2433.3687.008197.7706.026327.8932.040279.2651.030175 1.4924.115691 2.6459.184363 2.4928.14841 3.4228.19621 5.1028.26226 1.018.04001 1.951.09061 2.073.11243.123.02182.452.05581.733.07554.519.0365 1.112.12048 1.188.16835.023.01455.238.04614.477.0702s.607.07499.817.11318c.209.0382.467.08324.572.10011.105.01686.424.09618.709.17627.284.08009.577.14712.65.14895.074.00184.133.02694.132.05578-.001.02883.035.05365.078.05514.432.01466 1.462.13735 1.623.19327.113.03896.263.15641.335.261.141.20654.524.41816.877.48498.441.08359 1.205.17291 1.365.15964.09-.00745.163.01699.162.05431-.001.03733.018.04922.042.02643.025-.02279.103.01551.175.08512.071.06961.321.23114.555.35897.341.18623.515.2397.878.26908.478.03881.563.09486.509.33765-.034.15473-.291.27579-.571.26877-.08-.00202-.165.02419-.187.05825-.023.03407-.139.05949-.258.0565-.336-.00845-.864.1065-.865.18812 0 .13422.483.31034.958.34932.257.02111.855.06484 1.329.09718.956.06531 1.056.08495 1.103.21649.07.19393-.824.82511-1.552 1.0962-.235.08747-.354.17693-.436.3272-.141.2579-.079.38378.299.61646.147.09029.266.20745.265.26037s.04.13978.091.19301c.145.15095.106.30241-.111.42109-.109.05981-.324.22038-.478.35682-.235.2077-.331.25057-.594.26337-.231.01127-.343.05123-.424.15176-.061.07506-.097.15884-.081.18619.016.02734 0 .04897-.036.04807-.036-.00094-.1.06123-.143.13806s-.057.12034-.029.09671c.067-.05885.239.12823.188.20513-.024.0358.007.0496.075.0328.063-.0159 0 .0246-.143.0899-.142.0654-.35.1173-.462.1154s-.278.0223-.369.0538c-.121.0421-.165.0368-.165-.0199 0-.0424-.03-.0294-.066.029-.126.2005-.011.4233.305.5913.164.087.341.2265.393.31.053.0836.208.1881.345.2324.511.1651.583.4932.133.6084-.28.0715-.418.2716-.339.4922.04.1147.038.1668-.008.1657-.118-.003-.234.151-.232.3058.003.1532-.002.1557-.543.2647-.088.0178-.248.1044-.356.1924s-.276.1986-.374.2457c-.097.0471-.179.1264-.18.1762-.003.1168-.235.232-.511.2539-.302.0238-.426.0981-.443.2641-.014.1384.231.4403.36.4436.079.002.432.3727.43.4514-.003.1077-.235.1759-.681.2001-.243.0133-.587.0506-.764.083-.292.0536-1.335.2018-1.572.2234-.1.0091-.149.2326-.052.235.029.0007.022.0535-.015.1173-.036.0638-.047.1362-.023.161.08.083.03.8817-.06.9702-.048.0463-.219.0896-.381.0962-.261.0108-.435.1053-.378.2048.011.0193-.021.0705-.071.1139s-.091.058-.09.0324-.033-.0141-.076.0256c-.056.0526-.099.0529-.159.0009-.061-.052-.135-.0514-.277.0022-.325.1236-.224.3156.213.4047.49.0996.599.1449.522.2169-.021.0196-.475.0337-1.01.0315-1.137-.0049-1.268.0432-1.372.5027-.034.1486-.133.3747-.219.5024-.143.2111-.256.4866-.267.6493-.002.0346-.101.0695-.219.0777-.148.0102-.226.0525-.25.1347-.02.0659-.06.1036-.091.0839s-.056-.0071-.057.0281-.134.1358-.295.2235c-.457.2489-.525.4596-.192.5941.156.063.162.1105.05.3741-.083.1932.124.3234.808.5086.663.1793.847.2973.653.4178-.12.0748-.985-.0204-2.346-.2581-.616-.1076-.876-.0651-1.019.1668-.143.2311-.29.2969-.714.3193-.352.0186-.683.1819-.687.3388-.003.0963.278.1943.604.2106.245.0124.532.1854.389.2342-.045.0153-.125.0687-.179.1187-.053.05-.096.074-.096.0533.002-.0761-.391.1529-.471.2742-.099.1512-.435.3546-.567.3436-.329-.0272-.766.0044-.768.0555-.002.0976.327.3853.396.3457.035-.02.043-.006.019.0309-.025.037-.016.0861.02.1091s.047.0689.025.1021-.006.1037.037.1567c.12.1505-.003.2076-.491.2285-.245.0106-.576.0439-.735.0741-.159.0303-.693.106-1.186.1683-.494.0624-1.0587.1633-1.2559.2244-.2014.0625-.5315.1068-.7539.1012-.2175-.0055-.6048.0424-.8607.1063-.4394.1098-.5898.1113-2.6985.0269-1.2283-.0492-2.4771-.108-2.7751-.1307-.7766-.0592-1.7312-.1513-1.8623-.1796-.0617-.0134-.8083-.0611-1.6591-.1061-1.2166-.0643-1.7315-.0654-2.4112-.0052-.4754.0422-1.3488.0817-1.9411.0878-.5922.0062-1.1818.0212-1.3102.0333-.4431.042-1.9628.1035-2.8546.1156-.492.0067-1.3836.0266-1.9812.0443-.5977.0176-1.8052.0314-2.6834.0305-.8783-.0008-1.6832.0056-1.7888.0143-.1057.0088-.8274.0182-1.6039.0209s-1.4953.0128-1.5974.0224c-.1963.0185-.6799.0391-2.3913.1018-1.3433.0492-2.352.1146-3.1849.2066-.3622.04-.7683.07-.9024.0666s-.3278.0184-.4305.0483c-.1026.03-.3681.0647-.5901.0771-.2219.0124-.6833.0717-1.0253.1318-.3421.06-.7946.1199-1.0057.1331s-.6.046-.8642.0731c-.2642.027-.653.059-.8641.0711s-.6964.0577-1.0784.1015c-.3821.0437-.9294.0904-1.2163.1037-.2869.0134-.6868.0414-.8887.0623s-.7196.0349-1.1505.031-.9995.0134-1.2636.0384c-.5214.0493-1.631.0808-2.4929.0708-.2985-.0035-.6726.0143-.8313.0395-.1588.0252-1.2513.0367-2.4279.0255-1.1765-.0111-2.2012-.0092-2.277.0042-.0757.0134-.6941.0295-1.3741.0358-.68.0064-1.3803.0169-1.5561.0234-.1758.0064-.8228.0164-1.4377.0221-.6149.0058-1.3627.0228-1.6616.0379-.299.015-.5722.0191-.6071.0089-.0348-.0101-.4806.0018-.9907.0264-.51.0246-1.2149.0532-1.5665.0634-.3515.0103-.74.0277-.8633.0388-.1232.0111-.6122.0286-1.0865.0389-.4744.0103-.8773.0272-.8952.0375-.018.0104-.3922.028-.8316.0394-.4394.0113-.8567.0304-.9273.0426-.1292.0222-4.6528-.0097-6.6096-.0466-.5793-.011-1.5411-.0528-2.1372-.0929zm-12.9541-8.1144c.0318-.0013.0063-.0615-.0567-.1337-.098-.1124-.1787-.1303-.56043-.1243-.24527.0039-.45685.0371-.47019.0737-.03492.096.40498.2142.74169.1993.15823-.007.31383-.0138.34563-.015zm1.5949-3.3989c.0003-.0152-.028-.0284-.0631-.0293-.0351-.0008-.0646.0284-.0656.065-.0009.0367.0275.0499.0631.0294.0357-.0205.0652-.0498.0656-.0651zm-3.20688-1.9589c.00036-.0136-.0435-.0427-.09745-.0646-.05625-.023-.08215-.0131-.06071.0232.03595.0607.15685.0924.15816.0414zm.76189-1.9876c-.06145-.0633-.06897-.0562-.03664.0343.02236.0627.05715.0985.0773.0796.02016-.0189.00185-.0701-.04066-.1139zm.53016-.7422c-.06145-.0633-.06897-.0562-.03665.0343.02237.0627.05716.0985.07728.0796.0202-.0189.0019-.0702-.04063-.1139zm-.47733-.373c-.02081-.0351-.05049-.0642-.06597-.0646-.01549-.0004-.02889.0276-.02978.0622-.00084.0346.02879.0637.06597.0646.03718.001.05058-.027.02978-.0622zm2.61086-2.93659c-.0457-.01934-.1008-.01849-.1225.00189-.0218.02037.0156.03619.0829.03515.0744-.00118.09-.01568.0396-.03704zm-.0078-.16507c-.0956-.08191-.2469-.33092-.245-.40325.0006-.02201.0439-.0031.0962.04201.1241.10688.1994.03525.0973-.09251-.0897-.11232-.2553-.0293-.2595.13008-.0012.04972-.0247.07595-.0521.05831-.0274-.01765-.0554.02247-.0622.08916-.0083.08123.0284.12227.1113.12435.068.00172.123.03142.1221.06603-.0009.0346.063.06364.142.06453.1233.00138.1304-.0098.0499-.07871zm-.3795-.14421c.0004-.01526.0299-.04453.0656-.06503.0356-.02051.064-.0073.0631.02934-.001.03665-.0304.06592-.0656.06503-.0351-.00082-.0635-.01408-.0631-.02934zm1.1627-1.28096c.0059-.07776-.004-.10617-.0221-.06312-.0181.04304-.0585.06181-.0897.04169-.0312-.02011-.0407.00781-.0212.06204.0517.14361.1206.12256.133-.04061zm-.327-.05962c.0715-.10785-.0061-.13302-.0963-.03123-.0519.05853-.0577.09451-.0154.09557.0374.00095.0876-.02801.1117-.06434zm2.1277-2.10779c.0004-.0136-.042-.04211-.0942-.06335-.0521-.02124-.0955-.0112-.0964.02232-.0008.03352.0416.06203.0942.06335.0527.00133.0961-.00873.0964-.02232zm-10.77385 16.50544c.00084-.0325.03071-.076.06637-.0965s.06369.0069.0623.0608c-.00139.054-.03126.0974-.06637.0965-.0351-.0008-.06314-.0282-.0623-.0608zm2.73599-5.1084c.03804-.0356.10652-.0514.15217-.0351.0474.0169.01773.0447-.06916.0647-.10688.0247-.13158.0159-.08301-.0296zm.90814.0334c-.06554-.0441-.06985-.0654-.01416-.0702.14037-.012.17456-.0211.25282-.0674.04213-.025.09653-.0117.12089.0294.02765.0468.01705.0573-.02825.0281-.04298-.0277-.07357-.0067-.07507.0514-.00286.1107-.11574.1233-.25623.0287zm-.32501-.1498c.04954-.0464.09619-.0487.13668-.0067.04048.0419.0148.066-.07522.0704-.10294.0051-.11811-.0107-.06146-.0637zm1.63018-.9229c.00139-.054.0308-.0799.06536-.0576.03455.0223.06213.0671.06129.0997-.00084.0325-.03025.0585-.06536.0576-.03511-.0008-.06269-.0458-.06129-.0997zm.09817-1.0498c.10915-.1946.1202-.2001.10502-.052-.00739.0721-.05149.1444-.09801.1607-.06753.0236-.06894.0017-.00701-.1087zm.43965-2.2988c-.0534-.0345-.02258-.0633.0954-.0894.21386-.0472.25476-.0175.09982.0726-.06399.0372-.15183.0447-.19522.0168zm1.39973-4.22385c.0217-.02037.0768-.02123.1225-.00189.0504.02136.0348.03589-.0396.03704-.0674.00107-.1047-.01477-.0829-.03515zm.198-.24687c.0217-.02038.0768-.02123.1225-.00189.0504.02136.0348.03589-.0396.03704-.0674.00107-.1047-.01477-.0829-.03515zm1.1575-.77762c-.0011-.0664.015-.10318.0357-.08174.0206.02144.0215.07577.0019.12072-.0217.04969-.0364.0344-.0376-.03898zm2.3194-3.44132c-.0565-.03809-.0638-.06302-.0181-.06245.0418.00059.0931.0297.1139.06485.0469.07935.0248.07879-.0958-.0024z" fill="#fada9b"/></svg>