<svg fill="none" height="16" viewBox="0 0 16 16" width="16" xmlns="http://www.w3.org/2000/svg"><g fill="#6c5dd1"><path d="m11.9414 0h-8.40538c-1.94974 0-3.53602 1.58625-3.53602 3.53602v8.40538c0 1.9499 1.58628 3.5362 3.53602 3.5362h8.40538c1.9498 0 3.536-1.5863 3.536-3.5362v-8.40538c0-1.94977-1.5862-3.53602-3.536-3.53602zm1.5692 11.9414c0 .8653-.7039 1.5694-1.5692 1.5694h-8.40538c-.86527 0-1.56921-.7041-1.56921-1.5694v-8.40538c0-.86527.70394-1.56921 1.56921-1.56921h8.40538c.8653 0 1.5692.70394 1.5692 1.56921z"/><path d="m10.6946 4.50274c-1.30471 1.51953-2.60944 3.03903-3.91415 4.55856-.66765-.70694-1.33526-1.41391-2.00292-2.12085-.81642-.86451-2.11862.44105-1.30382 1.30382.89529.948 1.79056 1.89603 2.68585 2.84393.32332.3424.98537.3709 1.30379 0 1.51169-1.76052 3.02335-3.52108 4.53505-5.28162.7693-.89595-.5292-2.20597-1.3038-1.30384z"/></g></svg>