<svg fill="none" height="20" viewBox="0 0 20 20" width="20" xmlns="http://www.w3.org/2000/svg"><path d="m0 19.5897c0 .1088.0432239.2132.120163.2901.076939.077.181291.1202.290099.1202h18.211538c.1088 0 .2132-.0432.2901-.1202.0769-.0769.1202-.1813.1202-.2901 0-5.7088-4.997-7.3847-6.2935-7.7293l-.2256-2.07592c.2759-.41878.4765-.8825.5928-1.37028.3487-.24.5539-.80206.7077-1.35181.2257-.79796.2052-1.319-.0554-1.64105-.0486-.05904-.106-.11024-.1702-.1518.0123-.05128.0225-.10256.0348-.16.2442-1.46464.1026-2.54157-.4102-3.2021-.1958-.25722-.4657-.44835-.7734-.5477-.2632-.363333-.6054-.662137-1.001-.873853-.661-.383485-1.4268-.5465776-2.18669-.4656476-.30306.015008-.60262.071607-.89027.1682076-.33609.115052-.6544.276624-.94565.480006-.3501.221024-.67063.485717-.95386.787707-.51651.50554-.88227 1.14474-1.05643 1.84618-.1375.59455-.1375 1.21264 0 1.8072.00957.05197.01983.10325.03077.15385-.06083.04038-.11542.08945-.16205.14564-.26667.31795-.28513.84104-.05744 1.64105.14359.51898.34872 1.10155.7036 1.34976.11589.49983.31863.97543.59898 1.40515l-.22564 2.05131c-1.29027.3426-6.29342 2.0226-6.29342 7.7334zm8.50473-8.1519c.64911.2332 1.35913.2332 2.00827 0 .4678-.1767.8959-.4444 1.2595-.7877l.16 1.477-1.1529 2.6215-.32-.7241.4226-.9456c.0371-.0831.0455-.1761.024-.2645-.0215-.0883-.0718-.1671-.143-.2237l-.99281-.7836c-.0726-.0578-.16262-.0892-.25539-.0892-.09276 0-.18279.0314-.25539.0892l-.99078.7856c-.07069.0566-.12069.1349-.14221.2229-.02152.0879-.01335.1805.02323.2633l.42052.9436-.32.722-1.15899-2.6174.16821-1.4483c.36076.3329.78398.5909 1.24514.759zm.89027 2.4206-.36513-.8205.48616-.3857.48617.3857-.36515.8205c-.02317.0523-.03515.1089-.03515.1661 0 .0573.01198.1139.03515.1662l.69955 1.5713-.0636.1456c-.0645.145-.1697.2682-.30273.3547-.13307.0865-.28837.1325-.44706.1325-.1587 0-.31399-.046-.44707-.1325-.13307-.0865-.23821-.2097-.30269-.3547l-.07795-.1497.6954-1.5672c.02412-.0523.03695-.1091.03766-.1668.00071-.0576-.01073-.1147-.03356-.1676zm8.8063 5.3211h-17.370519c.227699-4.7919 4.402109-6.2052 5.608279-6.5109l1.57746 3.5693c.12647.292.33611.5403.60277.7139.26666.1737.57854.265.89674.2625.3182.0025.63007-.0888.89677-.2625.2666-.1736.4763-.4219.6027-.7139l1.5775-3.5693c1.1918.318 5.3785 1.7744 5.6083 6.5109zm-12.19301-12.34071c-.16411-.58052-.12924-.80821-.10872-.87591h.01231c.06915.00646.13882-.00474.20246-.03256s.11918-.07134.16141-.12648c.04223-.05515.06977-.12011.08004-.1888.01026-.0687.00292-.13888-.02134-.20396-.05328-.1444-.09311-.29341-.11898-.44513-.11666-.48008-.12087-.98061-.01231-1.46259.14056-.56322.43536-1.0761.8513-1.48104.24359-.25729.51938-.48206.82052-.66873.23229-.16384.48639-.29434.75488-.387697.22012-.073381.44927-.116174.68104-.127181.59701-.064494 1.1991.062669 1.719.363078.3192.16512.5899.41042.7856.71181.0301.06179.0758.11459.1327.15312.0569.03852.1229.06141.1915.06637.1821.04218.3409.15317.443.30975.2441.33026.4841 1.03796.238 2.52106-.0301.15455-.0712.30674-.1231.45539-.0228.06382-.0295.13231-.0194.19934.0102.06703.0367.1305.0774.18476.0406.05425.094.09759.1555.12614.0615.02854.1291.04142.1968.03746h.0164c.0205.06359.0574.28923-.1087.87386-.1806.64411-.3241.83693-.3693.88411-.0806.01806-.1539.06002-.2102.12041-.0564.0604-.0932.13639-.1057.21806-.1456.9436-.9313 2.17647-2.1026 2.59897-.47001.1692-.98431.1692-1.45435 0-1.1754-.4102-1.94054-1.62255-2.09028-2.60308-.01246-.08166-.04928-.15766-.10565-.21805-.05636-.06039-.12964-.10236-.21025-.12041-.03898-.04718-.18052-.24001-.35898-.88207z" fill="#5a6f84"/></svg>