<svg fill="none" height="20" viewBox="0 0 19 20" width="19" xmlns="http://www.w3.org/2000/svg"><path d="m9.43192 13.7176c.09254-.0002.18389-.0209.26751-.0606.08363-.0396.15746-.0972.21623-.1687.17274-.2073 4.22804-5.161 4.22804-8.77651 0-.61876-.1219-1.23146-.3587-1.80312-.2367-.57167-.5838-1.09109-1.0213-1.52862-.4376-.437529-.957-.784597-1.5287-1.021386-.5716-.23679-1.1843-.358664-1.80308-.358664-.61876 0-1.23147.121874-1.80313.358664-.57166.236789-1.09108.583857-1.52861 1.021386-.43753.43753-.7846.95695-1.02139 1.52862-.23679.57166-.35866 1.18436-.35866 1.80312 0 3.61551 4.05528 8.56921 4.22804 8.77651.05877.0715.1326.1291.21623.1687.08362.0397.17497.0604.26752.0606zm0-12.56478c.92978.01488 1.81568.39793 2.46348 1.06511.6477.66719 1.0044 1.56404.9918 2.49386 0 2.48468-2.403 5.96831-3.45528 7.35351-1.0523-1.401-3.45532-4.86883-3.45532-7.35351-.01259-.92982.3441-1.82667.99186-2.49386.64775-.66718 1.53367-1.05023 2.46346-1.06511zm2.19888 3.45531c0-.43489-.129-.86001-.3706-1.22161-.2416-.36159-.585-.64342-.9868-.80985-.40181-.16642-.84392-.20997-1.27046-.12513-.42653.08485-.81832.29427-1.12584.60178-.30751.30751-.51693.69931-.60177 1.12584s-.0413.86864.12513 1.27043c.16642.40178.44825.74519.80985.9868s.78672.37057 1.22161.37057c.58318 0 1.14248-.23166 1.55478-.64402.4124-.41236.6441-.97164.6441-1.55481zm-3.14124 0c0-.18638.05527-.36858.15881-.52355.10355-.15497.25073-.27575.42292-.34708.1722-.07132.36167-.08998.54447-.05362s.35071.12611.48254.2579c.1318.13179.2215.29971.2579.4825.0363.1828.0177.37228-.0537.54447-.0713.1722-.1921.31937-.34704.42292-.15497.10355-.33716.15882-.52354.15882-.24993 0-.48962-.09929-.66635-.27601-.17673-.17673-.27601-.41642-.27601-.66635zm10.05184 14.97097c-.1183.1328-.2635.2391-.426.3116-.1624.0726-.3385.1098-.5164.1093h-16.33418c-.1779.0012-.354022-.0355-.516713-.1074-.16269-.072-.30824-.1777-.42702-.3102-.118781-.1324-.208083-.2886-.2619972-.4581-.05391473-.1695-.071213-.3486-.05075037-.5253l1.12140057-9.7377c.03561-.3076.18355-.59122.41544-.79645.23189-.20522.53139-.31758.84104-.31553h1.70567c.15392.42406.33297.84498.52458 1.25648h-2.19884l-1.15281 9.7377h16.33418l-1.1214-9.7377h-2.2208c.1916-.4115.3706-.83242.5246-1.25648h1.6899c.3097-.00205.6092.11031.8411.31553.2319.20523.3798.48885.4154.79645l1.1214 9.7377c.0206.1758.0039.354-.0492.5229-.053.1689-.1412.3247-.2586.4572z" fill="#5a6f84"/></svg>