<svg height="90" viewBox="0 0 90 90" width="90" xmlns="http://www.w3.org/2000/svg"><g fill-rule="evenodd"><path d="m45 89.2c-24.3 0-44.1-19.8-44.1-44.1s19.8-44.2 44.1-44.2 44.1 19.8 44.1 44.1-19.8 44.2-44.1 44.2zm0-85.3c-22.7 0-41.1 18.5-41.1 41.2s18.4 41.1 41.1 41.1 41.1-18.4 41.1-41.1-18.4-41.2-41.1-41.2z" fill-rule="nonzero"/><path d="m76.2 68.8c-4.2 0-8-1.4-10.3-3.8-2.3 2.3-6.2 3.8-10.3 3.8-4.2 0-8.1-1.5-10.4-3.9-2.3 2.4-6.2 3.9-10.4 3.9s-8.1-1.5-10.4-3.9c-2.3 2.4-6.2 3.9-10.4 3.9v-3c3.9 0 7.5-1.5 8.9-3.8l.4-.7h2.1l.4.7c1.5 2.3 5 3.8 8.9 3.8s7.5-1.5 8.9-3.8l.4-.7h2.1l.4.7c1.5 2.3 5 3.8 8.9 3.8s7.5-1.5 8.9-3.8l.5-.7h1.9l.4.7c1.4 2.3 5 3.8 8.9 3.8v3z"/><path d="m57 68.5c-8.3-10.2-10.7-21.1-6-27.5 2.4-3.4 6.8-4.5 11.1-5.6 5.6-1.4 9.3-2.6 10-6.6h-19.1c-1.9 0-3.6.8-4.8 2l-3.2 3.7-3.2-3.7c-1.1-1.3-2.9-2-4.8-2h-19c.7 4 4.4 5.1 10 6.6 4.2 1.1 8.6 2.2 11.1 5.6 3.7 5.2 4.7 15.5-5.1 27.6l-2.3-1.9c8.7-10.7 8.1-19.6 5-23.9-1.8-2.5-5.5-3.4-9.4-4.4-5.8-1.5-12.4-3.2-12.4-11v-1.5h22.1c2.7 0 5.3 1.1 7 3.1l1 1.1 1-1.1c1.7-1.9 4.3-3.1 7-3.1h22.2v1.5c0 7.8-6.6 9.5-12.4 11-3.9 1-7.6 1.9-9.4 4.4-4.4 6.1-.2 16.4 6 23.9z"/><path d="m3 50.7h36.5v3h-36.5z"/><path d="m50.8 50.7h36.5v3h-36.5z"/></g></svg>