<svg fill="none" height="21" viewBox="0 0 21 21" width="21" xmlns="http://www.w3.org/2000/svg"><path clip-rule="evenodd" d="m10.5159 0c1.1437 0 2.0968.953101 2.0968 2.09682v6.32224h6.2905c1.1755 0 2.0968.92133 2.0968 2.09684 0 1.1437-.9213 2.0968-2.0968 2.0968h-6.2905v6.2905c0 1.1755-.9531 2.0968-2.0968 2.0968-1.17551 0-2.09684-.9213-2.09684-2.0968v-6.2905h-6.32224c-1.143719 0-2.09682-.9531-2.09682-2.0968 0-1.17551.953101-2.09684 2.09682-2.09684h6.32224v-6.32224c0-1.143719.92133-2.09682 2.09684-2.09682z" fill="#63c467" fill-rule="evenodd"/></svg>