<svg fill="none" height="20" viewBox="0 0 20 20" width="20" xmlns="http://www.w3.org/2000/svg"><path d="m4.20197 12.6386c0 1.1563-.94463 2.101-2.10098 2.101-1.156361 0-2.10099-.9447-2.10099-2.101 0-1.1564.944629-2.101 2.10099-2.101h2.10098z" fill="#e01e5a"/><path d="m5.26074 12.6386c0-1.1564.94463-2.101 2.10099-2.101 1.15635 0 2.10098.9446 2.10098 2.101v5.2606c0 1.1564-.94463 2.101-2.10098 2.101-1.15636 0-2.10099-.9446-2.10099-2.101z" fill="#e01e5a"/><path d="m7.36173 4.20197c-1.15636 0-2.10099-.94463-2.10099-2.10098 0-1.15636.94463-2.10099 2.10099-2.10099 1.15635 0 2.10098.94463 2.10098 2.10099v2.10098z" fill="#36c5f0"/><path d="m7.3616 5.26062c1.15636 0 2.10099.94463 2.10099 2.10099 0 1.15635-.94463 2.10098-2.10099 2.10098h-5.26061c-1.15636 0-2.10099-.94463-2.10099-2.10098 0-1.15636.94463-2.10099 2.10099-2.10099z" fill="#36c5f0"/><path d="m15.7979 7.36161c0-1.15636.9446-2.10099 2.1009-2.10099 1.1564 0 2.101.94463 2.101 2.10099 0 1.15635-.9446 2.10098-2.101 2.10098h-2.1009z" fill="#2eb67d"/><path d="m14.7391 7.3616c0 1.15636-.9446 2.10099-2.101 2.10099s-2.101-.94463-2.101-2.10099v-5.26061c0-1.15636.9446-2.10099 2.101-2.10099s2.101.94463 2.101 2.10099z" fill="#2eb67d"/><g fill="#ecb22e"><path d="m12.6381 15.7981c1.1564 0 2.101.9446 2.101 2.101 0 1.1563-.9446 2.101-2.101 2.101s-2.101-.9447-2.101-2.101v-2.101z"/><path d="m12.6381 14.7396c-1.1564 0-2.101-.9447-2.101-2.101 0-1.1564.9446-2.101 2.101-2.101h5.2606c1.1564 0 2.101.9446 2.101 2.101 0 1.1563-.9446 2.101-2.101 2.101z"/></g></svg>