<svg width="20" height="20" viewBox="0 0 20 20" fill="none" xmlns="http://www.w3.org/2000/svg">
<path d="M8.47667 11.5234C9.10176 12.1483 9.94946 12.4993 10.8333 12.4993C11.7172 12.4993 12.5649 12.1483 13.19 11.5234L16.5233 8.19006C17.1305 7.56138 17.4665 6.71937 17.4589 5.84538C17.4513 4.9714 17.1008 4.13535 16.4827 3.51733C15.8647 2.8993 15.0287 2.54874 14.1547 2.54114C13.2807 2.53355 12.4387 2.86953 11.81 3.47672L10.8933 4.39339M11.5233 8.47672C10.8982 7.85182 10.0506 7.50077 9.16667 7.50077C8.28279 7.50077 7.4351 7.85182 6.81001 8.47672L3.47667 11.8101C3.15831 12.1175 2.90436 12.4854 2.72967 12.892C2.55497 13.2987 2.46302 13.7361 2.45917 14.1787C2.45533 14.6213 2.53966 15.0602 2.70727 15.4699C2.87487 15.8796 3.12238 16.2517 3.43536 16.5647C3.74833 16.8777 4.1205 17.1252 4.53016 17.2928C4.93981 17.4604 5.37875 17.5447 5.82134 17.5409C6.26394 17.537 6.70134 17.4451 7.10802 17.2704C7.5147 17.0957 7.88252 16.8418 8.19001 16.5234L9.10834 15.6059L11.5233 8.47672Z" stroke="#6EAB78" stroke-width="2" stroke-linecap="round" stroke-linejoin="round"/>
</svg>
