<svg fill="none" height="21" viewBox="0 0 18 21" width="18" xmlns="http://www.w3.org/2000/svg"><g fill="#5a6f84"><path d="m6.96203 3.01868c-.08863 0-.17627-.02606-.25142-.07628-.1085-.07253-.18039-.18836-.19727-.31776-.01339-.10279-.02018-.20473-.02018-.30286 0-1.28025 1.04154-2.32178 2.32173-2.32178 1.28021 0 2.32171 1.04153 2.32171 2.32178 0 .09836-.0068.20038-.0202.30314-.0169.12935-.0889.24509-.1974.31757-.1084.07252-.2429.0946-.3689.06063-1.12802-.30378-2.34234-.30378-3.47047 0-.03869.01045-.07823.01556-.1176.01556zm1.85291-1.14931c.46358 0 .92525.04226 1.37896.12601-.1479-.62447-.71002-1.090441-1.37896-1.090441-.66899 0-1.23111.465971-1.37892 1.090441.45371-.08375.91534-.12601 1.37892-.12601z"/><path d="m9.37407 21c-1.53791 0-2.78911-1.2511-2.78911-2.7891 0-.2498.20256-.4524.45245-.4524h4.67329c.2499 0 .4525.2026.4525.4524 0 1.538-1.2512 2.7891-2.78913 2.7891zm-1.82929-2.3366c.20315.8211.94629 1.4318 1.82929 1.4318.88303 0 1.62613-.6107 1.82933-1.4318z"/><path d="m17.1779 18.6634h-16.725453c-.249887 0-.452447-.2026-.452447-.4525v-2.2997c0-.6197.201203-1.205.581847-1.6925.773863-.9912 1.076963-2.249.831463-3.4507-.10547-.5163-.15895-.96647-.15895-1.33793 0-3.41217 2.29879-6.41434 5.59021-7.30073.6408-.17251 1.30377-.26002 1.97059-.26002.66681 0 1.32974.08751 1.97054.26002 3.2914.88639 5.5902 3.88856 5.5902 7.30073 0 .3716-.0535.82173-.1589 1.33793-.2455 1.2017.0575 2.4594.8315 3.4507.3806.4875.5818 1.0728.5818 1.6925v2.2997c0 .2499-.2026.4525-.4524.4525zm-16.273006-.9049h15.820506v-1.8473c0-.416-.1349-.8087-.3902-1.1357-.9372-1.2003-1.3035-2.727-1.0048-4.1886.0933-.4567.1406-.84591.1406-1.15683 0-3.00388-2.0235-5.64676-4.9207-6.42696-1.12796-.30368-2.34228-.30373-3.47046 0-2.8972.7802-4.92058 3.42308-4.92058 6.42692 0 .31074.04732.69997.14062 1.15687.29857 1.4616-.06769 2.9883-1.0048 4.1886-.25531.3269-.390232.7196-.390232 1.1356v1.8474z"/><path d="m16.0118 13.9433h-14.48709c-.24988 0-.45244-.2026-.45244-.4524 0-.2499.20256-.4525.45244-.4525h14.48709c.2499 0 .4525.2026.4525.4525 0 .2498-.2026.4524-.4525.4524z"/><path d="m13.2078 9.27008c-.2453 0-.4468-.19604-.4522-.44249-.0688-3.12102-2.79717-3.74825-2.91331-3.77341-.24364-.0528-.39938-.29291-.34744-.53669.05199-.24382.29075-.39983.53465-.34861.0366.00769.9073.19582 1.786.85852.8172.61632 1.8005 1.77241 1.8448 3.78028.0054.2498-.1926.45679-.4424.46231-.0034.00005-.0068.00009-.0101.00009z"/><path d="m13.0682 10.681c-.119 0-.2358-.0484-.3199-.1326-.0842-.0841-.1326-.2008-.1326-.3198s.0484-.23576.1326-.31991c.0841-.08416.2009-.13257.3199-.13257s.2357.04841.3198.13257c.0842.08415.1326.20091.1326.31991s-.0484.2357-.1326.3198c-.0841.0842-.2008.1326-.3198.1326z"/><path d="m16.6878 15.6579h-10.40625c-.24989 0-.45245-.2026-.45245-.4524 0-.2499.20256-.4525.45245-.4525h10.40625c.2499 0 .4525.2026.4525.4525 0 .2498-.2026.4524-.4525.4524z"/><path d="m4.92413 15.6579c-.119 0-.23573-.0484-.31988-.1326-.08416-.0841-.13257-.2008-.13257-.3198s.04841-.2358.13257-.3199c.08415-.0842.20088-.1326.31988-.1326.11899 0 .23572.0484.31988.1326.08415.0842.13256.2009.13256.3199s-.04841.2357-.13256.3198c-.08416.0842-.20089.1326-.31988.1326z"/><path d="m3.5667 15.6579c-.11899 0-.23572-.0484-.31988-.1326-.08415-.0841-.13256-.2008-.13256-.3198s.04841-.2358.13256-.3199c.08416-.0842.20089-.1326.31988-.1326.119 0 .23573.0484.31988.1326.08416.0842.13257.2009.13257.3199s-.04841.2357-.13257.3198c-.08415.0842-.20088.1326-.31988.1326z"/></g></svg>